<?xml version="1.0" encoding="UTF-8"?>
<svg version="1.1" xmlns="http://www.w3.org/2000/svg" width="904" height="906">
<path d="M0 0 C298.32 0 596.64 0 904 0 C904 298.98 904 597.96 904 906 C605.68 906 307.36 906 0 906 C0 607.02 0 308.04 0 0 Z " fill="#FDFDFD" transform="translate(0,0)"/>
<path d="M0 0 C1.01519793 -0.00788867 1.01519793 -0.00788867 2.0509049 -0.0159367 C4.31732036 -0.02988562 6.58315579 -0.02252911 8.84959507 -0.01523495 C10.49145988 -0.02084047 12.13332069 -0.02774307 13.77517515 -0.03583091 C18.28597708 -0.05418926 22.79661225 -0.0537837 27.30744302 -0.05024779 C32.17257377 -0.04963588 37.03765089 -0.06619076 41.90275669 -0.08042049 C51.43342518 -0.10534311 60.96403801 -0.11358511 70.49473637 -0.11525763 C78.24006072 -0.11668277 85.98536669 -0.12284529 93.73068523 -0.1323595 C115.68412234 -0.15877847 137.63751543 -0.1726175 159.59096854 -0.17036808 C160.7745613 -0.17024821 161.95815405 -0.17012835 163.17761326 -0.17000484 C164.36264876 -0.1698822 165.54768425 -0.16975956 166.76862992 -0.1696332 C185.98211188 -0.16841334 205.1954176 -0.19713399 224.40884858 -0.23941994 C244.13119135 -0.28248398 263.8534481 -0.30323207 283.5758391 -0.30063862 C294.65092064 -0.29964186 305.72581735 -0.30792019 316.80085659 -0.34017277 C326.22855289 -0.3674519 335.65598054 -0.37404331 345.08369916 -0.3536445 C349.89480423 -0.34383087 354.70539352 -0.34374197 359.51644993 -0.36970425 C363.92028325 -0.39322492 368.3231897 -0.38908436 372.72699971 -0.36285185 C374.32047814 -0.35823017 375.91402489 -0.36375859 377.5074228 -0.38043208 C390.89128753 -0.51121291 390.89128753 -0.51121291 395.49749184 3.18226051 C399.47603287 7.23531884 399.19132876 11.61534053 399.19698048 17.06422424 C399.19903311 17.73762599 399.20108574 18.41102774 399.20320058 19.1048356 C399.20887544 21.37155236 399.20741274 23.63820845 399.20599461 25.90493107 C399.20857795 27.54236628 399.21159102 29.17980087 399.21499801 30.81723458 C399.22307461 35.32497207 399.22485794 39.83269365 399.22559547 44.34043753 C399.22744483 49.19872664 399.23499147 54.05700746 399.24173069 58.91529179 C399.2553182 69.54108369 399.26133909 80.16687182 399.26574135 90.79267097 C399.26850249 97.42410694 399.27273955 104.05554145 399.27724552 110.68697643 C399.28943765 129.03881171 399.29973778 147.39064581 399.30312061 165.74248505 C399.30334018 166.91722842 399.30355975 168.09197179 399.30378596 169.30231345 C399.30400424 170.47989811 399.30422252 171.65748276 399.30444741 172.8707518 C399.30489088 175.25706859 399.30533745 177.64338539 399.30578709 180.02970219 C399.30600852 181.21340269 399.30622995 182.3971032 399.30645809 183.61667342 C399.31040849 202.8089426 399.32787015 222.00117386 399.35114661 241.19342839 C399.37483801 260.88630679 399.38732142 280.57916614 399.38848853 300.27205902 C399.38940642 311.33363794 399.39518755 322.39516742 399.41330814 333.45673275 C399.42867916 342.87312547 399.4338473 352.2894535 399.42557004 361.70585638 C399.42165317 366.51250983 399.42264358 371.31903287 399.43662739 376.12567043 C399.44930401 380.5230707 399.44822408 384.92024172 399.43603668 389.31764138 C399.43406883 390.91114211 399.43720792 392.50465873 399.44588104 394.09813707 C399.45690389 396.25961934 399.44953584 398.4202825 399.43748951 400.58174133 C399.4380866 401.78366621 399.43868369 402.98559109 399.43929887 404.22393793 C398.89228532 408.85177932 397.44602804 411.2930452 393.80606651 414.17463356 C390.42575124 415.6686869 387.91255351 415.76307852 384.21733189 415.76622009 C383.53771117 415.77088001 382.85809046 415.77553993 382.15787518 415.78034106 C379.87584711 415.79231165 377.59441215 415.78288806 375.31237888 415.77358341 C373.66170323 415.77775543 372.01103045 415.78323222 370.36036301 415.78990322 C365.82062634 415.80439375 361.28107067 415.80010189 356.74132395 415.79273641 C351.84691079 415.788016 346.95253744 415.80050454 342.05813694 415.81075382 C332.46850288 415.82796881 322.87893426 415.82877631 313.28928876 415.82354092 C305.49720453 415.81950331 297.70513968 415.8209379 289.91305637 415.82628918 C288.80503294 415.8270376 287.69700951 415.82778602 286.55540961 415.82855712 C284.30464593 415.83008856 282.05388226 415.83162691 279.80311859 415.83317209 C258.68611015 415.84690669 237.56913875 415.84145251 216.45213115 415.82998688 C197.12087594 415.82005159 177.7897164 415.8329986 158.45847595 415.85692107 C138.62091584 415.88128566 118.78340035 415.89092656 98.94582558 415.88426834 C87.80377069 415.88077049 76.66178943 415.88304555 65.51974583 415.90051937 C56.03564692 415.91520829 46.55167348 415.91592016 37.06757712 415.89844846 C32.22645733 415.88990908 27.38556198 415.88786031 22.54445362 415.90310001 C18.115565 415.91686978 13.68709475 415.9122841 9.25823081 415.89286078 C7.65332336 415.88907665 6.04838302 415.89209161 4.44350469 415.90247243 C2.26641881 415.91555665 0.09079538 415.90413808 -2.08622646 415.88647461 C-3.29672256 415.88636727 -4.50721865 415.88625994 -5.75439644 415.88614935 C-9.60642588 415.28019606 -11.21086811 414.13641862 -13.93444729 411.38590336 C-16.34914291 407.97447048 -16.18596986 404.79753687 -16.18892288 400.69475842 C-16.19212936 400.01996789 -16.19533584 399.34517737 -16.19863948 398.64993864 C-16.20697117 396.37842041 -16.20100423 394.10716368 -16.1951437 391.83564091 C-16.19816295 390.19479252 -16.20205128 388.55394555 -16.20673627 386.91310108 C-16.21705435 382.39587166 -16.21482478 377.87872126 -16.21055567 373.36148524 C-16.20809533 368.49294752 -16.217094 363.62442917 -16.22459316 358.75589848 C-16.23736164 349.21459813 -16.23913117 339.67332591 -16.2367929 330.13201846 C-16.23501192 322.37853805 -16.23675464 314.62506619 -16.24101734 306.8715868 C-16.24161253 305.76926732 -16.24220772 304.66694785 -16.24282094 303.53122475 C-16.24403266 301.29205927 -16.2452468 299.05289379 -16.24646332 296.81372832 C-16.2573472 275.80066426 -16.25517239 254.78761623 -16.24907847 233.77455126 C-16.24390894 214.54092252 -16.25516423 195.30734443 -16.27417669 176.07372572 C-16.29353752 156.33676872 -16.30181416 136.5998357 -16.29805344 116.86286914 C-16.29613868 105.77722913 -16.29865565 94.69163223 -16.31276798 83.60599995 C-16.32466043 74.16840437 -16.32611075 64.73087842 -16.31397782 55.29328193 C-16.308074 50.47638172 -16.30703106 45.65960901 -16.31898022 40.84271717 C-16.32978799 36.43477347 -16.32679684 32.02706451 -16.31271853 27.61913203 C-16.31005746 26.02292404 -16.31248212 24.42669795 -16.3204544 22.83050765 C-16.33053046 20.66296401 -16.322165 18.49624108 -16.3091774 16.32873058 C-16.30923241 15.12414766 -16.30928743 13.91956475 -16.30934411 12.67847931 C-15.87508747 8.86456869 -15.07799968 6.57368387 -12.93444729 3.38590336 C-8.61778409 0.48490534 -5.13483039 0.00902053 0 0 Z " fill="#090C0F" transform="translate(258.9344472885132,245.61409664154053)"/>
<path d="M0 0 C0.91703164 -0.00583219 1.83406328 -0.01166439 2.77888376 -0.01767331 C3.79296688 -0.01389399 4.80705 -0.01011467 5.85186291 -0.00622082 C6.9240182 -0.01004636 7.99617349 -0.01387191 9.10081834 -0.01781338 C12.71752302 -0.0281873 16.33407025 -0.02414289 19.95078564 -0.02018261 C22.53406961 -0.0245267 25.1173523 -0.02970883 27.70063305 -0.03567028 C34.00400225 -0.04844447 40.30732891 -0.05020752 46.61070887 -0.04787002 C51.73362145 -0.04608939 56.85652108 -0.04783101 61.97943211 -0.05209446 C62.70763752 -0.05268965 63.43584293 -0.05328484 64.18611517 -0.05389806 C65.66533445 -0.05510978 67.14455373 -0.05632391 68.623773 -0.05754044 C82.50868078 -0.06842687 96.3935643 -0.06624853 110.27847346 -0.06015559 C122.98495686 -0.0549879 135.69136355 -0.066236 148.39783178 -0.08525381 C161.4371396 -0.10462048 174.47641112 -0.11289012 187.51573342 -0.10913056 C194.83933292 -0.10721642 202.16286717 -0.10972657 209.48645496 -0.1238451 C216.37367924 -0.13698762 223.2607474 -0.13451471 230.14797115 -0.12143421 C232.67920069 -0.11906058 235.21044093 -0.12183108 237.74165821 -0.13005733 C241.19068298 -0.14045997 244.63918548 -0.13247587 248.08819103 -0.11974621 C249.59927747 -0.13080764 249.59927747 -0.13080764 251.1408909 -0.14209253 C259.87390565 -0.07404418 259.87390565 -0.07404418 263.66050243 3.25447559 C265.44259052 6.19232198 265.91164263 8.3753507 265.91777134 11.79042339 C265.92422023 12.70037024 265.93066912 13.61031709 265.93731344 14.54783809 C265.93266763 16.0416918 265.93266763 16.0416918 265.92792797 17.56572437 C265.93245908 18.62663229 265.9369902 19.68754021 265.94165862 20.78059685 C265.95435237 24.3472917 265.95267903 27.91383483 265.95102978 31.48054981 C265.95701189 34.0329505 265.9638167 36.58534938 265.971385 39.13774586 C265.98724427 45.35829313 265.99349476 51.57878453 265.99460976 57.79935013 C265.99555997 62.85546398 265.99966895 67.91156532 266.00601101 72.96767521 C266.02362454 87.30141237 266.03284967 101.63511958 266.03135006 115.96886764 C266.03127015 116.74164854 266.03119024 117.51442944 266.0311079 118.31062794 C266.03102614 119.08435191 266.03094438 119.85807588 266.03086014 120.65524603 C266.03004715 133.19605127 266.04918787 145.73673643 266.07738464 158.27750693 C266.10610575 171.1530324 266.11992537 184.0284993 266.11819708 196.90405762 C266.11753293 204.13322878 266.12303643 211.36227404 266.14455318 218.59141636 C266.16465647 225.38924748 266.16409925 232.18676837 266.14951992 238.98462772 C266.14742363 241.48157864 266.15218119 243.97854597 266.16424084 246.47546864 C266.17962258 249.88038126 266.17043102 253.28436758 266.15497875 256.68925953 C266.16526588 257.68070056 266.175553 258.67214159 266.18615186 259.69362628 C266.12951397 265.3291083 265.66272732 268.93110593 261.66050243 273.25447559 C257.1159941 276.19240132 251.49727017 275.54140111 246.26696301 275.52863026 C245.20928421 275.53386694 244.15160542 275.53910361 243.06187576 275.54449898 C239.51211232 275.55952 235.96249276 275.5602046 232.4126997 275.56087208 C229.87000313 275.56849202 227.32730886 275.57691923 224.78461742 275.58609486 C217.87356742 275.60806017 210.96256736 275.61686294 204.05148721 275.6219213 C199.73585602 275.62517974 195.42023373 275.63170299 191.10460758 275.63892269 C179.15390752 275.65848388 167.20321573 275.67489164 155.25249863 275.67779922 C154.48807229 275.67798679 153.72364595 275.67817436 152.93605518 275.67836762 C151.38642085 275.67873387 149.83678651 275.67909756 148.28715218 275.67945873 C147.51792368 275.67964154 146.74869518 275.67982435 145.95615673 275.6800127 C144.80090495 275.68028353 144.80090495 275.68028353 143.62231474 275.68055982 C131.13651281 275.68410321 118.65088316 275.71113794 106.16514099 275.74851059 C93.34382378 275.78658053 80.52259211 275.80595659 67.70121711 275.80625874 C60.50332537 275.80684351 53.30563931 275.81534821 46.10780048 275.8442564 C39.34027903 275.87131176 32.57323404 275.87268652 25.80565548 275.85660076 C23.31998654 275.85478007 20.83429456 275.86153247 18.34867573 275.87741947 C14.95897144 275.89776669 11.57071013 275.88739349 8.18102551 275.86920643 C7.19415754 275.8824064 6.20728958 275.89560636 5.19051653 275.90920633 C0.71573835 275.85425215 -2.37115568 275.71285611 -5.93453026 272.84105492 C-8.95711361 269.59022004 -9.46414868 268.23775068 -9.47092533 263.94621277 C-9.47476648 263.03614792 -9.47860762 262.12608307 -9.48256516 261.1884405 C-9.48169868 260.18213928 -9.4808322 259.17583805 -9.47993946 258.13904285 C-9.48291058 257.07505467 -9.48588171 256.01106648 -9.48894286 254.91483623 C-9.49766063 251.32581171 -9.4991407 247.73682043 -9.50063038 244.14778614 C-9.50525637 241.58420712 -9.51028072 239.02062879 -9.51567554 236.45705128 C-9.52882244 229.47565142 -9.53528534 222.49426256 -9.5396862 215.51285243 C-9.54244689 211.15520369 -9.54668393 206.79755717 -9.55119038 202.43990993 C-9.56338468 190.37952501 -9.57368354 178.31914187 -9.57706547 166.25875092 C-9.57728503 165.48653243 -9.5775046 164.71431395 -9.57773082 163.9186949 C-9.5779491 163.14460697 -9.57816738 162.37051905 -9.57839227 161.57297391 C-9.57883574 160.00432408 -9.5792823 158.43567425 -9.57973194 156.86702442 C-9.57995337 156.08891652 -9.5801748 155.31080862 -9.58040294 154.50912169 C-9.58435134 141.89964012 -9.60180592 129.29021632 -9.62509146 116.68075707 C-9.64879464 103.7408953 -9.66126685 90.80106253 -9.66243339 77.8611787 C-9.66335075 70.59346421 -9.66911846 63.32582499 -9.687253 56.05813122 C-9.70424671 49.22344537 -9.70591433 42.38890474 -9.69711399 35.55420399 C-9.69634085 33.04232177 -9.70072257 30.53043202 -9.71057224 28.01856899 C-9.72320904 24.5958266 -9.71745971 21.17359748 -9.70699024 17.75085926 C-9.71504665 16.7512502 -9.72310305 15.75164114 -9.73140359 14.7217409 C-9.68047839 7.62845798 -8.49327115 0.00925472 0 0 Z " fill="#0A0D10" transform="translate(322.33949756622314,315.7455244064331)"/>
<path d="M0 0 C1.01519793 -0.00788867 1.01519793 -0.00788867 2.0509049 -0.0159367 C4.31732036 -0.02988562 6.58315579 -0.02252911 8.84959507 -0.01523495 C10.49145988 -0.02084047 12.13332069 -0.02774307 13.77517515 -0.03583091 C18.28597708 -0.05418926 22.79661225 -0.0537837 27.30744302 -0.05024779 C32.17257377 -0.04963588 37.03765089 -0.06619076 41.90275669 -0.08042049 C51.43342518 -0.10534311 60.96403801 -0.11358511 70.49473637 -0.11525763 C78.24006072 -0.11668277 85.98536669 -0.12284529 93.73068523 -0.1323595 C115.68412234 -0.15877847 137.63751543 -0.1726175 159.59096854 -0.17036808 C160.7745613 -0.17024821 161.95815405 -0.17012835 163.17761326 -0.17000484 C164.36264876 -0.1698822 165.54768425 -0.16975956 166.76862992 -0.1696332 C185.98211188 -0.16841334 205.1954176 -0.19713399 224.40884858 -0.23941994 C244.13119135 -0.28248398 263.8534481 -0.30323207 283.5758391 -0.30063862 C294.65092064 -0.29964186 305.72581735 -0.30792019 316.80085659 -0.34017277 C326.22855289 -0.3674519 335.65598054 -0.37404331 345.08369916 -0.3536445 C349.89480423 -0.34383087 354.70539352 -0.34374197 359.51644993 -0.36970425 C363.92028325 -0.39322492 368.3231897 -0.38908436 372.72699971 -0.36285185 C374.32047814 -0.35823017 375.91402489 -0.36375859 377.5074228 -0.38043208 C390.89128753 -0.51121291 390.89128753 -0.51121291 395.49749184 3.18226051 C399.47603287 7.23531884 399.19132876 11.61534053 399.19698048 17.06422424 C399.19903311 17.73762599 399.20108574 18.41102774 399.20320058 19.1048356 C399.20887544 21.37155236 399.20741274 23.63820845 399.20599461 25.90493107 C399.20857795 27.54236628 399.21159102 29.17980087 399.21499801 30.81723458 C399.22307461 35.32497207 399.22485794 39.83269365 399.22559547 44.34043753 C399.22744483 49.19872664 399.23499147 54.05700746 399.24173069 58.91529179 C399.2553182 69.54108369 399.26133909 80.16687182 399.26574135 90.79267097 C399.26850249 97.42410694 399.27273955 104.05554145 399.27724552 110.68697643 C399.28943765 129.03881171 399.29973778 147.39064581 399.30312061 165.74248505 C399.30334018 166.91722842 399.30355975 168.09197179 399.30378596 169.30231345 C399.30400424 170.47989811 399.30422252 171.65748276 399.30444741 172.8707518 C399.30489088 175.25706859 399.30533745 177.64338539 399.30578709 180.02970219 C399.30600852 181.21340269 399.30622995 182.3971032 399.30645809 183.61667342 C399.31040849 202.8089426 399.32787015 222.00117386 399.35114661 241.19342839 C399.37483801 260.88630679 399.38732142 280.57916614 399.38848853 300.27205902 C399.38940642 311.33363794 399.39518755 322.39516742 399.41330814 333.45673275 C399.42867916 342.87312547 399.4338473 352.2894535 399.42557004 361.70585638 C399.42165317 366.51250983 399.42264358 371.31903287 399.43662739 376.12567043 C399.44930401 380.5230707 399.44822408 384.92024172 399.43603668 389.31764138 C399.43406883 390.91114211 399.43720792 392.50465873 399.44588104 394.09813707 C399.45690389 396.25961934 399.44953584 398.4202825 399.43748951 400.58174133 C399.4380866 401.78366621 399.43868369 402.98559109 399.43929887 404.22393793 C398.89228532 408.85177932 397.44602804 411.2930452 393.80606651 414.17463356 C390.42575124 415.6686869 387.91255351 415.76307852 384.21733189 415.76622009 C383.53771117 415.77088001 382.85809046 415.77553993 382.15787518 415.78034106 C379.87584711 415.79231165 377.59441215 415.78288806 375.31237888 415.77358341 C373.66170323 415.77775543 372.01103045 415.78323222 370.36036301 415.78990322 C365.82062634 415.80439375 361.28107067 415.80010189 356.74132395 415.79273641 C351.84691079 415.788016 346.95253744 415.80050454 342.05813694 415.81075382 C332.46850288 415.82796881 322.87893426 415.82877631 313.28928876 415.82354092 C305.49720453 415.81950331 297.70513968 415.8209379 289.91305637 415.82628918 C288.80503294 415.8270376 287.69700951 415.82778602 286.55540961 415.82855712 C284.30464593 415.83008856 282.05388226 415.83162691 279.80311859 415.83317209 C258.68611015 415.84690669 237.56913875 415.84145251 216.45213115 415.82998688 C197.12087594 415.82005159 177.7897164 415.8329986 158.45847595 415.85692107 C138.62091584 415.88128566 118.78340035 415.89092656 98.94582558 415.88426834 C87.80377069 415.88077049 76.66178943 415.88304555 65.51974583 415.90051937 C56.03564692 415.91520829 46.55167348 415.91592016 37.06757712 415.89844846 C32.22645733 415.88990908 27.38556198 415.88786031 22.54445362 415.90310001 C18.115565 415.91686978 13.68709475 415.9122841 9.25823081 415.89286078 C7.65332336 415.88907665 6.04838302 415.89209161 4.44350469 415.90247243 C2.26641881 415.91555665 0.09079538 415.90413808 -2.08622646 415.88647461 C-3.29672256 415.88636727 -4.50721865 415.88625994 -5.75439644 415.88614935 C-9.60642588 415.28019606 -11.21086811 414.13641862 -13.93444729 411.38590336 C-16.34914291 407.97447048 -16.18596986 404.79753687 -16.18892288 400.69475842 C-16.19212936 400.01996789 -16.19533584 399.34517737 -16.19863948 398.64993864 C-16.20697117 396.37842041 -16.20100423 394.10716368 -16.1951437 391.83564091 C-16.19816295 390.19479252 -16.20205128 388.55394555 -16.20673627 386.91310108 C-16.21705435 382.39587166 -16.21482478 377.87872126 -16.21055567 373.36148524 C-16.20809533 368.49294752 -16.217094 363.62442917 -16.22459316 358.75589848 C-16.23736164 349.21459813 -16.23913117 339.67332591 -16.2367929 330.13201846 C-16.23501192 322.37853805 -16.23675464 314.62506619 -16.24101734 306.8715868 C-16.24161253 305.76926732 -16.24220772 304.66694785 -16.24282094 303.53122475 C-16.24403266 301.29205927 -16.2452468 299.05289379 -16.24646332 296.81372832 C-16.2573472 275.80066426 -16.25517239 254.78761623 -16.24907847 233.77455126 C-16.24390894 214.54092252 -16.25516423 195.30734443 -16.27417669 176.07372572 C-16.29353752 156.33676872 -16.30181416 136.5998357 -16.29805344 116.86286914 C-16.29613868 105.77722913 -16.29865565 94.69163223 -16.31276798 83.60599995 C-16.32466043 74.16840437 -16.32611075 64.73087842 -16.31397782 55.29328193 C-16.308074 50.47638172 -16.30703106 45.65960901 -16.31898022 40.84271717 C-16.32978799 36.43477347 -16.32679684 32.02706451 -16.31271853 27.61913203 C-16.31005746 26.02292404 -16.31248212 24.42669795 -16.3204544 22.83050765 C-16.33053046 20.66296401 -16.322165 18.49624108 -16.3091774 16.32873058 C-16.30923241 15.12414766 -16.30928743 13.91956475 -16.30934411 12.67847931 C-15.87508747 8.86456869 -15.07799968 6.57368387 -12.93444729 3.38590336 C-8.61778409 0.48490534 -5.13483039 0.00902053 0 0 Z M4.06555271 20.38590336 C4.06555271 144.13590336 4.06555271 267.88590336 4.06555271 395.38590336 C127.81555271 395.38590336 251.56555271 395.38590336 379.06555271 395.38590336 C379.06555271 271.63590336 379.06555271 147.88590336 379.06555271 20.38590336 C255.31555271 20.38590336 131.56555271 20.38590336 4.06555271 20.38590336 Z " fill="#030303" transform="translate(258.9344472885132,245.61409664154053)"/>
<path d="M0 0 C0.91703164 -0.00583219 1.83406328 -0.01166439 2.77888376 -0.01767331 C3.79296688 -0.01389399 4.80705 -0.01011467 5.85186291 -0.00622082 C6.9240182 -0.01004636 7.99617349 -0.01387191 9.10081834 -0.01781338 C12.71752302 -0.0281873 16.33407025 -0.02414289 19.95078564 -0.02018261 C22.53406961 -0.0245267 25.1173523 -0.02970883 27.70063305 -0.03567028 C34.00400225 -0.04844447 40.30732891 -0.05020752 46.61070887 -0.04787002 C51.73362145 -0.04608939 56.85652108 -0.04783101 61.97943211 -0.05209446 C62.70763752 -0.05268965 63.43584293 -0.05328484 64.18611517 -0.05389806 C65.66533445 -0.05510978 67.14455373 -0.05632391 68.623773 -0.05754044 C82.50868078 -0.06842687 96.3935643 -0.06624853 110.27847346 -0.06015559 C122.98495686 -0.0549879 135.69136355 -0.066236 148.39783178 -0.08525381 C161.4371396 -0.10462048 174.47641112 -0.11289012 187.51573342 -0.10913056 C194.83933292 -0.10721642 202.16286717 -0.10972657 209.48645496 -0.1238451 C216.37367924 -0.13698762 223.2607474 -0.13451471 230.14797115 -0.12143421 C232.67920069 -0.11906058 235.21044093 -0.12183108 237.74165821 -0.13005733 C241.19068298 -0.14045997 244.63918548 -0.13247587 248.08819103 -0.11974621 C249.59927747 -0.13080764 249.59927747 -0.13080764 251.1408909 -0.14209253 C259.87390565 -0.07404418 259.87390565 -0.07404418 263.66050243 3.25447559 C265.44259052 6.19232198 265.91164263 8.3753507 265.91777134 11.79042339 C265.92422023 12.70037024 265.93066912 13.61031709 265.93731344 14.54783809 C265.93266763 16.0416918 265.93266763 16.0416918 265.92792797 17.56572437 C265.93245908 18.62663229 265.9369902 19.68754021 265.94165862 20.78059685 C265.95435237 24.3472917 265.95267903 27.91383483 265.95102978 31.48054981 C265.95701189 34.0329505 265.9638167 36.58534938 265.971385 39.13774586 C265.98724427 45.35829313 265.99349476 51.57878453 265.99460976 57.79935013 C265.99555997 62.85546398 265.99966895 67.91156532 266.00601101 72.96767521 C266.02362454 87.30141237 266.03284967 101.63511958 266.03135006 115.96886764 C266.03127015 116.74164854 266.03119024 117.51442944 266.0311079 118.31062794 C266.03102614 119.08435191 266.03094438 119.85807588 266.03086014 120.65524603 C266.03004715 133.19605127 266.04918787 145.73673643 266.07738464 158.27750693 C266.10610575 171.1530324 266.11992537 184.0284993 266.11819708 196.90405762 C266.11753293 204.13322878 266.12303643 211.36227404 266.14455318 218.59141636 C266.16465647 225.38924748 266.16409925 232.18676837 266.14951992 238.98462772 C266.14742363 241.48157864 266.15218119 243.97854597 266.16424084 246.47546864 C266.17962258 249.88038126 266.17043102 253.28436758 266.15497875 256.68925953 C266.16526588 257.68070056 266.175553 258.67214159 266.18615186 259.69362628 C266.12951397 265.3291083 265.66272732 268.93110593 261.66050243 273.25447559 C257.1159941 276.19240132 251.49727017 275.54140111 246.26696301 275.52863026 C245.20928421 275.53386694 244.15160542 275.53910361 243.06187576 275.54449898 C239.51211232 275.55952 235.96249276 275.5602046 232.4126997 275.56087208 C229.87000313 275.56849202 227.32730886 275.57691923 224.78461742 275.58609486 C217.87356742 275.60806017 210.96256736 275.61686294 204.05148721 275.6219213 C199.73585602 275.62517974 195.42023373 275.63170299 191.10460758 275.63892269 C179.15390752 275.65848388 167.20321573 275.67489164 155.25249863 275.67779922 C154.48807229 275.67798679 153.72364595 275.67817436 152.93605518 275.67836762 C151.38642085 275.67873387 149.83678651 275.67909756 148.28715218 275.67945873 C147.51792368 275.67964154 146.74869518 275.67982435 145.95615673 275.6800127 C144.80090495 275.68028353 144.80090495 275.68028353 143.62231474 275.68055982 C131.13651281 275.68410321 118.65088316 275.71113794 106.16514099 275.74851059 C93.34382378 275.78658053 80.52259211 275.80595659 67.70121711 275.80625874 C60.50332537 275.80684351 53.30563931 275.81534821 46.10780048 275.8442564 C39.34027903 275.87131176 32.57323404 275.87268652 25.80565548 275.85660076 C23.31998654 275.85478007 20.83429456 275.86153247 18.34867573 275.87741947 C14.95897144 275.89776669 11.57071013 275.88739349 8.18102551 275.86920643 C7.19415754 275.8824064 6.20728958 275.89560636 5.19051653 275.90920633 C0.71573835 275.85425215 -2.37115568 275.71285611 -5.93453026 272.84105492 C-8.95711361 269.59022004 -9.46414868 268.23775068 -9.47092533 263.94621277 C-9.47476648 263.03614792 -9.47860762 262.12608307 -9.48256516 261.1884405 C-9.48169868 260.18213928 -9.4808322 259.17583805 -9.47993946 258.13904285 C-9.48291058 257.07505467 -9.48588171 256.01106648 -9.48894286 254.91483623 C-9.49766063 251.32581171 -9.4991407 247.73682043 -9.50063038 244.14778614 C-9.50525637 241.58420712 -9.51028072 239.02062879 -9.51567554 236.45705128 C-9.52882244 229.47565142 -9.53528534 222.49426256 -9.5396862 215.51285243 C-9.54244689 211.15520369 -9.54668393 206.79755717 -9.55119038 202.43990993 C-9.56338468 190.37952501 -9.57368354 178.31914187 -9.57706547 166.25875092 C-9.57728503 165.48653243 -9.5775046 164.71431395 -9.57773082 163.9186949 C-9.5779491 163.14460697 -9.57816738 162.37051905 -9.57839227 161.57297391 C-9.57883574 160.00432408 -9.5792823 158.43567425 -9.57973194 156.86702442 C-9.57995337 156.08891652 -9.5801748 155.31080862 -9.58040294 154.50912169 C-9.58435134 141.89964012 -9.60180592 129.29021632 -9.62509146 116.68075707 C-9.64879464 103.7408953 -9.66126685 90.80106253 -9.66243339 77.8611787 C-9.66335075 70.59346421 -9.66911846 63.32582499 -9.687253 56.05813122 C-9.70424671 49.22344537 -9.70591433 42.38890474 -9.69711399 35.55420399 C-9.69634085 33.04232177 -9.70072257 30.53043202 -9.71057224 28.01856899 C-9.72320904 24.5958266 -9.71745971 21.17359748 -9.70699024 17.75085926 C-9.71504665 16.7512502 -9.72310305 15.75164114 -9.73140359 14.7217409 C-9.68047839 7.62845798 -8.49327115 0.00925472 0 0 Z M9.66050243 19.25447559 C9.66050243 97.13447559 9.66050243 175.01447559 9.66050243 255.25447559 C87.54050243 255.25447559 165.42050243 255.25447559 245.66050243 255.25447559 C245.66050243 177.37447559 245.66050243 99.49447559 245.66050243 19.25447559 C167.78050243 19.25447559 89.90050243 19.25447559 9.66050243 19.25447559 Z " fill="#FCFCFC" transform="translate(322.33949756622314,315.7455244064331)"/>
<path d="M0 0 C3.04612164 2.74150948 4.27206063 5.04538111 5 9 C5.1178169 11.39679665 5.17935276 13.79653427 5.20874023 16.19604492 C5.21852402 16.91369019 5.2283078 17.63133545 5.23838806 18.37072754 C5.2682468 20.74062268 5.28970297 23.11046169 5.30859375 25.48046875 C5.31516558 26.29300928 5.3217374 27.10554981 5.32850838 27.94271278 C5.36106315 32.24540085 5.38552129 36.54806458 5.4050293 40.85083008 C5.42282159 44.40002725 5.45761281 47.94842678 5.50756836 51.49731445 C5.56797307 55.79439021 5.59853222 60.09072833 5.60820198 64.38820839 C5.61672426 66.01922511 5.63546237 67.65022383 5.6649456 69.28099632 C5.82512145 78.64620095 5.79820407 85.89286494 -1 93 C-2.34371925 94.42751335 -2.34371925 94.42751335 -3.71458435 95.88386536 C-6.43534286 98.71152106 -9.22451962 101.46303556 -12.03591728 104.20028114 C-13.905047 106.02136168 -15.76334078 107.85290401 -17.61915588 109.68754578 C-22.89112923 114.89567911 -28.18180565 120.0846312 -33.47924805 125.2668457 C-36.73205057 128.45033038 -39.97271711 131.64576265 -43.20631599 134.84874535 C-44.43880388 136.06443754 -45.67608292 137.27529189 -46.91814995 138.48119545 C-48.64617281 140.15904829 -50.35850449 141.85151618 -52.06811523 143.5480957 C-52.5859256 144.04321655 -53.10373596 144.5383374 -53.63723755 145.04846191 C-55.21089954 146.57222996 -55.21089954 146.57222996 -57 149 C-57.00840331 151.19933717 -57.00840331 151.19933717 -56 153 C-55.67902344 153.76054688 -55.35804688 154.52109375 -55.02734375 155.3046875 C-54.66769531 156.15289063 -54.30804688 157.00109375 -53.9375 157.875 C-50.23770089 168.01569026 -50.85839404 180.01687518 -55 190 C-56.32027517 191.34626484 -57.6536848 192.67977618 -59 194 C-59.2990625 194.82242188 -59.598125 195.64484375 -59.90625 196.4921875 C-61.39034031 199.89499456 -63.44347917 201.07391366 -66.5 203.125 C-70.78405474 206.01475668 -70.78405474 206.01475668 -74 210 C-84.66931997 214.56384359 -97.51886459 216.42240798 -108.5625 212.25 C-117.85857554 207.83934142 -125.90900948 201.51041185 -130.12890625 191.9453125 C-131.01701136 189.96201051 -132.05905068 188.16781526 -133.1875 186.3125 C-137.57011076 178.30290102 -137.34804455 167.31359266 -135.12890625 158.56640625 C-132.55078653 151.9309178 -129.01337947 146.99104816 -124 142 C-123.49339844 141.43410156 -122.98679688 140.86820313 -122.46484375 140.28515625 C-119.03419152 136.54345822 -115.81715893 134.8064346 -111 133 C-110.14921875 132.48695313 -109.2984375 131.97390625 -108.421875 131.4453125 C-103.79126283 129.48946033 -99.72673465 129.51014111 -94.75 129.5625 C-93.34536499 129.56624634 -93.34536499 129.56624634 -91.91235352 129.57006836 C-85.98260881 129.68643928 -81.1159938 130.30456209 -75.83984375 133.22265625 C-73.37744583 134.26303244 -72.51533072 133.89882464 -70 133 C-60.25101658 126.48942221 -51.44602853 118.33172993 -42.8125 110.4375 C-42.17710171 109.85841511 -41.54170341 109.27933022 -40.88705063 108.6826973 C-24.4653507 93.55737769 -13.49260994 79.95283675 -12.16934776 57.08906746 C-11.62751202 43.82693067 -12.48201355 30.33164905 -14.1138916 17.16442871 C-14.34235779 15.26147034 -14.34235779 15.26147034 -14.57543945 13.32006836 C-14.72721146 12.21497421 -14.87898346 11.10988007 -15.03535461 9.97129822 C-14.99278677 6.39378026 -14.16231694 4.81321995 -12 2 C-8.00814732 -0.66123512 -4.69479495 -0.84047866 0 0 Z " fill="#0D1013" transform="translate(309,690)"/>
<path d="M0 0 C0.73700638 -0.00978378 1.47401276 -0.01956757 2.23335266 -0.02964783 C4.67361661 -0.05957008 7.11382566 -0.08098262 9.55419922 -0.09985352 C10.80748331 -0.10971126 10.80748331 -0.10971126 12.08608627 -0.11976814 C16.51196347 -0.15235363 20.93781674 -0.17680211 25.36376953 -0.19628906 C29.01679794 -0.21407227 32.66905007 -0.24884456 36.32177734 -0.29882812 C40.74089052 -0.35922188 45.15928638 -0.3897912 49.57879257 -0.39946175 C51.25725528 -0.40798781 52.9357003 -0.42673536 54.61392593 -0.45620537 C64.08198538 -0.61346475 71.5649112 -0.70775862 78.73388672 6.20874023 C79.68268707 7.10455307 80.63148743 8.00036591 81.60903931 8.92332458 C84.43001169 11.64370601 87.17386211 14.43304922 89.9036026 17.24465752 C91.72037384 19.11416451 93.5480628 20.97235462 95.37908936 22.82789612 C100.57720242 28.09893039 105.75755635 33.38717483 110.92529297 38.68798828 C114.10009403 41.94299503 117.28924686 45.1833503 120.48775482 48.41505623 C121.70073461 49.64666757 122.90799076 50.88394313 124.10935211 52.12689018 C125.78232564 53.85733406 127.47281667 55.56865968 129.16845703 57.27685547 C129.6599826 57.79466583 130.15150818 58.3124762 130.65792847 58.84597778 C132.19297614 60.43590064 132.19297614 60.43590064 134.73388672 62.20874023 C137.64269286 62.06925414 139.49355089 61.30733955 142.17138672 60.20874023 C150.76686843 56.85440591 163.20806804 56.10494435 171.86279297 59.71264648 C183.97899642 65.59068524 193.15225701 73.74974536 198.73388672 86.20874023 C201.03417609 95.94484873 201.33050077 108.20703771 196.73388672 117.20874023 C196.07388672 117.20874023 195.41388672 117.20874023 194.73388672 117.20874023 C194.36263672 118.29541992 194.36263672 118.29541992 193.98388672 119.40405273 C189.86328817 128.64964573 180.16050317 136.49708772 170.95654297 140.38061523 C167.00705897 141.39551294 163.41687167 141.50206392 159.35888672 141.45874023 C158.64216797 141.46647461 157.92544922 141.47420898 157.18701172 141.48217773 C146.26201526 141.44273731 136.19264714 137.88767238 128.29638672 130.20874023 C121.73388672 123.18222508 121.73388672 123.18222508 121.73388672 119.20874023 C120.74388672 118.87874023 119.75388672 118.54874023 118.73388672 118.20874023 C113.31510823 106.56840125 114.97523996 93.15709897 118.73388672 81.20874023 C119.38499278 79.86773945 120.04912995 78.53287406 120.73388672 77.20874023 C113.26670486 67.56816532 105.43776956 58.29303931 97.23388672 49.27124023 C96.62980484 48.60667564 96.02572296 47.94211105 95.40333557 47.25740814 C79.12605836 29.55226289 64.80998838 18.13280508 40.16967773 17.08222961 C25.28973002 16.73223783 10.29420008 18.03042686 -4.42852783 20.11038208 C-7.45703964 20.21535824 -8.78512115 19.8907487 -11.26611328 18.20874023 C-13.67553511 15.28301372 -14.5028466 12.86388542 -14.70361328 9.14624023 C-14.26611328 5.20874023 -14.26611328 5.20874023 -12.45361328 2.77124023 C-8.47324338 -0.07188112 -4.69730732 0.0394054 0 0 Z " fill="#0C0F12" transform="translate(702.26611328125,590.791259765625)"/>
<path d="M0 0 C1.08172485 -0.01226624 1.08172485 -0.01226624 2.18530273 -0.02478027 C4.55394696 -0.049442 6.92253228 -0.06609609 9.29125977 -0.08056641 C10.10446245 -0.08589008 10.91766514 -0.09121376 11.75551033 -0.09669876 C16.05591002 -0.12334045 20.35628152 -0.14274803 24.65673828 -0.15722656 C28.20582747 -0.17058431 31.75434425 -0.19848298 35.30322266 -0.23925781 C39.60256667 -0.28863922 43.90139046 -0.31335281 48.20100594 -0.32045364 C49.83364621 -0.32715093 51.46627554 -0.34233335 53.09875298 -0.36634445 C67.43552622 -0.56527531 67.43552622 -0.56527531 72.05712891 2.47949219 C74.54516602 5.19287109 74.54516602 5.19287109 75.23266602 9.13037109 C74.8635863 13.27662829 73.20187293 15.98919511 70.54516602 19.19287109 C67.67661725 20.62714548 65.67579815 19.94227124 62.50561523 19.50952148 C21.55011564 14.08223583 21.55011564 14.08223583 -15.54172897 28.37993717 C-23.31119825 34.72361014 -30.28536434 41.83688543 -37.01733398 49.25537109 C-37.62461586 49.92421955 -38.23189774 50.59306801 -38.85758209 51.2821846 C-46.39987848 59.64960616 -53.57474476 68.27370413 -60.45483398 77.19287109 C-59.9861792 78.09912231 -59.9861792 78.09912231 -59.50805664 79.02368164 C-54.08009664 90.20296413 -53.60475535 104.48422575 -57.45483398 116.13037109 C-58.09852596 117.82676767 -58.75631796 119.51830367 -59.45483398 121.19287109 C-60.11483398 121.19287109 -60.77483398 121.19287109 -61.45483398 121.19287109 C-61.94983398 122.67787109 -61.94983398 122.67787109 -62.45483398 124.19287109 C-66.24275034 128.43992883 -70.6646729 132.11574775 -75.45483398 135.19287109 C-76.11483398 135.19287109 -76.77483398 135.19287109 -77.45483398 135.19287109 C-77.78483398 136.18287109 -78.11483398 137.17287109 -78.45483398 138.19287109 C-90.6382356 142.36268319 -103.35612444 142.58939669 -115.45483398 138.19287109 C-121.32483391 135.22185886 -127.09039944 130.97178219 -130.45483398 125.19287109 C-130.45483398 123.87287109 -130.45483398 122.55287109 -130.45483398 121.19287109 C-131.23213867 120.94666016 -132.00944336 120.70044922 -132.81030273 120.44677734 C-135.88567732 118.98858644 -136.479487 118.22014389 -137.76733398 115.13037109 C-141.11324172 105.65487008 -140.95278933 94.77747909 -137.14233398 85.50537109 C-136.28079066 83.71760401 -135.38505732 81.94588353 -134.45483398 80.19287109 C-133.99979492 79.20029297 -133.54475586 78.20771484 -133.07592773 77.18505859 C-129.58657769 70.74447514 -123.86605824 64.54449658 -116.76733398 62.25537109 C-116.02354492 62.07490234 -115.27975586 61.89443359 -114.51342773 61.70849609 C-112.1918723 61.21711227 -112.1918723 61.21711227 -109.32983398 59.50537109 C-101.58389015 56.05060741 -91.21045858 57.60766289 -83.45483398 60.19287109 C-81.7932337 60.86338431 -80.14420452 61.56700777 -78.51733398 62.31787109 C-77.35911133 62.84767578 -77.35911133 62.84767578 -76.17749023 63.38818359 C-75.60901367 63.65373047 -75.04053711 63.91927734 -74.45483398 64.19287109 C-74.23925842 63.65361496 -74.02368286 63.11435883 -73.80157471 62.5587616 C-71.97571556 59.35117847 -69.49494233 56.92979772 -66.90698242 54.33862305 C-66.05780998 53.47696533 -66.05780998 53.47696533 -65.19148254 52.59790039 C-63.32116151 50.7035127 -61.4432941 48.81684468 -59.56420898 46.93115234 C-58.25857022 45.61654623 -56.95300898 44.30186313 -55.64752197 42.98710632 C-52.91074394 40.23384586 -50.16960847 37.48500378 -47.42602539 34.73852539 C-43.91244255 31.21955315 -40.41530517 27.68470827 -36.92193222 24.14568806 C-34.23147308 21.42548297 -31.52982668 18.71660367 -28.8249588 16.01073265 C-27.53069007 14.71225842 -26.24054209 13.40966313 -24.95464325 12.10289955 C-23.15480504 10.27619418 -21.33981856 8.46597309 -19.52026367 6.65893555 C-18.99328384 6.11712143 -18.46630402 5.57530731 -17.9233551 5.01707458 C-12.46899993 -0.33115238 -7.2970714 0.07230233 0 0 Z " fill="#0C0F12" transform="translate(141.454833984375,589.80712890625)"/>
<path d="M0 0 C7.05194515 6.62500066 12.21107891 16.18745948 12.8984375 25.8359375 C13.20244166 35.86807473 10.80608572 43.85333605 6.6875 52.875 C6.0275 52.875 5.3675 52.875 4.6875 52.875 C4.44 53.431875 4.1925 53.98875 3.9375 54.5625 C-0.71257404 63.16513698 -8.50548545 67.1152123 -17.5 70.25 C-27.37699157 73.03701415 -38.94441531 73.74908702 -48.3125 68.875 C-48.9725 68.215 -49.6325 67.555 -50.3125 66.875 C-54.6598404 66.96385601 -57.19822811 70.38370676 -60.02734375 73.296875 C-60.58720978 73.86112183 -61.14707581 74.42536865 -61.72390747 75.00671387 C-62.93746165 76.23167649 -64.14753774 77.46009239 -65.35452271 78.69152832 C-67.26437703 80.63966521 -69.18344188 82.57828228 -71.10522461 84.51464844 C-75.18275166 88.626469 -79.24843592 92.74987798 -83.3125 96.875 C-88.02164832 101.65489791 -92.73549906 106.42994677 -97.46218872 111.19250488 C-99.35397724 113.10376091 -101.23651472 115.02382109 -103.11889648 116.94433594 C-104.27803751 118.11437387 -105.43760142 119.28399306 -106.59765625 120.453125 C-107.1193338 120.99030151 -107.64101135 121.52747803 -108.17849731 122.08093262 C-110.72857182 124.63211285 -112.62369631 126.51319135 -116.3125 126.875 C-116.3125 127.535 -116.3125 128.195 -116.3125 128.875 C-126.11796348 128.96777329 -135.92332215 129.03880217 -145.72913551 129.08224869 C-150.28263502 129.10310333 -154.83583374 129.13138193 -159.38916016 129.17675781 C-163.78527143 129.22029168 -168.18109379 129.24415308 -172.57740402 129.25450897 C-174.25272544 129.26188684 -175.92803145 129.27629429 -177.60322952 129.29792023 C-179.95409276 129.32705544 -182.30376976 129.33095193 -184.65478516 129.32910156 C-185.34386963 129.34348267 -186.0329541 129.35786377 -186.74291992 129.37268066 C-191.69219464 129.33066527 -194.50026609 127.96831744 -198.3125 124.875 C-199.84464888 121.81070224 -199.54188548 119.2584358 -199.3125 115.875 C-197.90789303 113.00194028 -196.56739001 111.12989001 -194.3125 108.875 C-191.74665833 108.96662903 -191.74665833 108.96662903 -188.44067383 109.42895508 C-148.62977564 114.72914724 -148.62977564 114.72914724 -112.46151447 100.96644115 C-104.82408325 94.84452964 -98.00015938 87.93614927 -91.375 80.75 C-90.77796391 80.10728275 -90.18092781 79.46456551 -89.56579971 78.80237198 C-85.56048785 74.46935781 -81.65793913 70.06011076 -77.84765625 65.5546875 C-77.34913399 64.9655916 -76.85061172 64.3764957 -76.33698273 63.76954842 C-74.94454207 62.09900114 -73.58394355 60.40811254 -72.23461914 58.70263672 C-71.47170059 57.74412811 -70.70878204 56.78561951 -69.92274475 55.79806519 C-67.94343688 52.20504249 -67.90442666 49.92251616 -68.3125 45.875 C-68.79976562 44.76125 -69.28703125 43.6475 -69.7890625 42.5 C-71.64353258 38.08731222 -71.75880197 34.5967752 -71.6875 29.875 C-71.69910156 29.10671875 -71.71070313 28.3384375 -71.72265625 27.546875 C-71.69554217 22.23251473 -70.687766 18.62553201 -68.3125 13.875 C-67.80396484 12.75738281 -67.80396484 12.75738281 -67.28515625 11.6171875 C-66.98480469 11.00101563 -66.68445313 10.38484375 -66.375 9.75 C-66.07722656 9.12867188 -65.77945313 8.50734375 -65.47265625 7.8671875 C-60.94153109 0.08646753 -53.42452096 -6.18826047 -45.0234375 -9.37109375 C-28.58156731 -13.47175111 -13.40689266 -10.64741572 0 0 Z " fill="#0C0F12" transform="translate(889.3125,186.125)"/>
<path d="M0 0 C1.28003906 0.00644531 2.56007812 0.01289063 3.87890625 0.01953125 C6.86687609 0.16056605 9.53797953 0.4918377 12.4375 1.1875 C12.4375 1.8475 12.4375 2.5075 12.4375 3.1875 C13.6440625 3.496875 13.6440625 3.496875 14.875 3.8125 C26.42330042 8.26973876 34.36801491 17.04301212 39.4375 28.1875 C41.98342644 37.03516779 41.89518055 48.31736928 37.875 56.625 C37.39933594 57.44871094 36.92367187 58.27242187 36.43359375 59.12109375 C35.08774111 61.29955918 35.08774111 61.29955918 36.4375 64.1875 C38.00816066 65.68836237 38.00816066 65.68836237 39.95092773 67.17822266 C44.21586751 70.79668349 47.45493844 74.84630786 50.84909058 79.27278137 C72.53387448 107.69554455 72.53387448 107.69554455 103.94843006 121.73938751 C116.02713303 123.0167282 128.09379684 122.49520327 140.18188477 121.65576172 C140.94159954 121.60350717 141.70131432 121.55125261 142.48405075 121.49741459 C146.09434125 121.23584903 149.68006747 120.91463179 153.27224731 120.46720886 C162.45952248 119.49996402 162.45952248 119.49996402 165.40615845 121.57150269 C167.70349454 124.626091 168.40882405 127.03629954 169.125 130.8125 C168.1555834 135.5714542 166.43347596 136.52351603 162.4375 139.1875 C158.93933492 140.35355503 156.12320833 140.35777272 152.4309082 140.41210938 C151.72155624 140.42349945 151.01220428 140.43488953 150.28135681 140.44662476 C142.86625666 140.55721723 135.45017464 140.60469329 128.03442383 140.64746094 C124.51992876 140.66972257 121.00649789 140.71147261 117.49243164 140.77050781 C113.24186691 140.84176702 108.99230223 140.87831717 104.74117088 140.89057922 C103.1260377 140.90095068 101.510933 140.92330595 99.89614296 140.95817566 C85.69652435 141.24891415 85.69652435 141.24891415 81.18432617 137.43286133 C79.91039621 136.04019318 78.66464487 134.62156332 77.4375 133.1875 C75.99734921 131.76806745 74.55616214 130.34958914 73.10129261 128.9452467 C70.24312134 126.17755508 67.43910978 123.35532743 64.625 120.54296875 C63.4033921 119.3245791 62.18171117 118.10626267 60.95996094 116.88801575 C58.41668704 114.35069324 55.87545121 111.8113496 53.33544922 109.27075195 C50.07423439 106.00943469 46.80614528 102.7550986 43.53633118 99.50240612 C41.01944871 96.99660347 38.50708508 94.48630841 35.9960022 91.97469521 C34.79188169 90.771757 33.58613414 89.5704452 32.37875366 88.37077904 C30.70086892 86.70263063 29.02936592 85.02834055 27.359375 83.35229492 C26.85765274 82.85619217 26.35593048 82.36008942 25.83900452 81.84895325 C22.4375 78.41582854 22.4375 78.41582854 22.4375 76.1875 C21.261875 76.785625 20.08625 77.38375 18.875 78 C17.40516982 78.74780834 15.92426276 79.47394933 14.4375 80.1875 C13.38304687 80.71859375 12.32859375 81.2496875 11.2421875 81.796875 C6.91295029 83.62407886 2.77301976 83.6833957 -1.875 83.625 C-2.71587158 83.61742676 -3.55674316 83.60985352 -4.4230957 83.60205078 C-15.57253064 83.30634415 -23.58716485 79.07729865 -31.47265625 71.3046875 C-35.46335931 66.98354406 -38.38205314 62.64871182 -40.5625 57.1875 C-40.8615625 56.43855469 -41.160625 55.68960938 -41.46875 54.91796875 C-44.87835147 45.14693492 -44.80229438 35.31500288 -40.81640625 25.74609375 C-36.31441804 16.55979383 -30.07977706 9.8656847 -21.5625 4.1875 C-19.64537941 3.6846487 -17.72719702 3.18240233 -15.79296875 2.75 C-13.43960751 2.20119638 -13.43960751 2.20119638 -10.7734375 1.13671875 C-7.04525334 0.03459132 -3.88227675 -0.04309288 0 0 Z " fill="#0C0F12" transform="translate(45.5625,173.8125)"/>
<path d="M0 0 C1.86791992 1.39117432 1.86791992 1.39117432 3.27148438 3.35302734 C3.67114671 7.43281078 3.10455831 11.31024694 2.52323723 15.35586739 C-0.40965206 36.94396852 -3.82986138 64.497379 9.68603516 83.05957031 C22.90113268 100.12458299 40.2352254 114.29974157 57.19020081 127.50227356 C57.87702438 128.11302231 58.56384796 128.72377106 59.27148438 129.35302734 C59.27148438 130.01302734 59.27148438 130.67302734 59.27148438 131.35302734 C60.20605469 130.99208984 61.140625 130.63115234 62.10351562 130.25927734 C69.82119645 127.4617176 77.03496075 125.82572259 85.27148438 125.72802734 C86.0472583 125.70546875 86.82303223 125.68291016 87.62231445 125.65966797 C92.91806277 125.72789017 96.18315302 127.07390091 100.48388672 130.14697266 C102.47110207 131.58696049 102.47110207 131.58696049 105.89648438 132.72802734 C110.14720947 134.77467276 112.64401951 137.47354901 115.27148438 141.35302734 C115.60148438 142.34302734 115.93148437 143.33302734 116.27148438 144.35302734 C116.93148437 144.68302734 117.59148437 145.01302734 118.27148438 145.35302734 C118.96806801 147.00741347 119.63245321 148.67557052 120.27148438 150.35302734 C120.93148437 151.34302734 121.59148437 152.33302734 122.27148438 153.35302734 C125.08832471 165.52904685 124.36573434 178.9591915 119.27148438 190.35302734 C118.61148438 190.35302734 117.95148438 190.35302734 117.27148438 190.35302734 C116.94148437 191.34302734 116.61148438 192.33302734 116.27148438 193.35302734 C112.54055533 197.26701599 108.5646439 200.86432623 103.27148438 202.35302734 C103.27148438 203.01302734 103.27148438 203.67302734 103.27148438 204.35302734 C98.29101563 206.50146484 98.29101563 206.50146484 96.27148438 207.35302734 C95.51480469 207.71138672 94.758125 208.06974609 93.97851562 208.43896484 C85.23979624 211.38970126 74.06454724 209.62167068 65.27148438 207.35302734 C64.61148438 207.02302734 63.95148438 206.69302734 63.27148438 206.35302734 C63.27148438 205.69302734 63.27148438 205.03302734 63.27148438 204.35302734 C62.31242188 204.16740234 62.31242188 204.16740234 61.33398438 203.97802734 C60.65335938 203.77177734 59.97273437 203.56552734 59.27148438 203.35302734 C58.94148437 202.69302734 58.61148438 202.03302734 58.27148438 201.35302734 C57.57023438 201.00240234 56.86898437 200.65177734 56.14648438 200.29052734 C51.73208735 197.31560761 46.99107201 192.45488615 45.75585938 187.13037109 C45.51609375 186.25058594 45.51609375 186.25058594 45.27148438 185.35302734 C44.28148437 185.02302734 43.29148437 184.69302734 42.27148438 184.35302734 C39.42741255 179.69217385 39.94065986 174.2554885 39.95898438 168.97802734 C39.93481445 167.59744141 39.93481445 167.59744141 39.91015625 166.18896484 C39.90531297 159.40837844 41.15276172 155.06079199 44.52148438 149.16552734 C45.51827713 146.75661151 45.14918742 145.79115748 44.27148438 143.35302734 C42.75052119 141.40582505 42.75052119 141.40582505 40.78076172 139.53759766 C39.67358292 138.43560028 39.67358292 138.43560028 38.54403687 137.31134033 C37.73995392 136.5258783 36.93587097 135.74041626 36.10742188 134.93115234 C35.28198883 134.11233582 34.45655579 133.29351929 33.60610962 132.44989014 C30.95988573 129.82709576 28.30375568 127.21462454 25.64648438 124.60302734 C23.01232133 122.00407651 20.38034774 119.40296403 17.75112915 116.79901123 C16.11487477 115.17954901 14.4755366 113.56319452 12.83261108 111.95050049 C8.6470724 107.81891595 4.63870628 103.61113341 0.8218689 99.13540649 C-1.80665201 96.11356205 -4.63772412 93.2987662 -7.47851562 90.47802734 C-8.32349609 89.62724609 -8.32349609 89.62724609 -9.18554688 88.75927734 C-11.60171254 86.34882365 -13.88026157 84.25186338 -16.72851562 82.35302734 C-17.03117476 79.86623023 -17.13814595 77.6266515 -17.11669922 75.13696289 C-17.12458466 74.02203461 -17.12458466 74.02203461 -17.13262939 72.88458252 C-17.14586748 70.41942522 -17.13707556 67.95491035 -17.12695312 65.48974609 C-17.12897342 63.77822241 -17.13188448 62.06669957 -17.13565063 60.35517883 C-17.14007967 56.76298856 -17.13362684 53.17102175 -17.11962891 49.57885742 C-17.10257523 44.97862956 -17.11235009 40.37892823 -17.1303463 35.7787199 C-17.14120163 32.24162349 -17.13772911 28.70465125 -17.12996292 25.16755104 C-17.12796374 23.47191111 -17.13041031 21.77625986 -17.13740158 20.08063316 C-17.14504062 17.70587845 -17.1333765 15.33196746 -17.11669922 12.95727539 C-17.12277191 12.25838699 -17.1288446 11.5594986 -17.13510132 10.83943176 C-17.07903015 6.5186812 -16.37695808 3.78839873 -13.72851562 0.35302734 C-8.89865407 -2.31610667 -4.8790985 -2.57627846 0 0 Z " fill="#0D1013" transform="translate(606.728515625,692.64697265625)"/>
<path d="M0 0 C12.45264494 5.02616818 21.68301153 12.11541764 27.74609375 24.30712891 C31.2682419 34.65538719 31.10199288 48.02635856 27.74609375 58.30712891 C27.08609375 58.30712891 26.42609375 58.30712891 25.74609375 58.30712891 C25.53984375 58.96712891 25.33359375 59.62712891 25.12109375 60.30712891 C21.6737218 67.82866771 16.55440532 72.78991089 9.74609375 77.30712891 C9.0897998 77.75290283 8.43350586 78.19867676 7.75732422 78.65795898 C1.67197007 82.44007154 -3.24111104 83.02108972 -10.31640625 82.80712891 C-11.25806641 82.80970703 -12.19972656 82.81228516 -13.16992188 82.81494141 C-19.23430755 82.73053799 -23.68228073 81.65812697 -29.25390625 79.30712891 C-31.62031506 78.34668988 -31.62031506 78.34668988 -34.25390625 78.30712891 C-37.12059776 79.82099601 -37.12059776 79.82099601 -39.94628906 82.20751953 C-40.4914854 82.64099386 -41.03668173 83.07446819 -41.59839916 83.52107811 C-48.81130967 89.33551185 -55.71444144 95.5073398 -62.50390625 101.80712891 C-63.16166927 102.41375114 -63.8194323 103.02037338 -64.49712753 103.64537811 C-81.90347065 119.83809539 -93.28071586 134.14215265 -94.32229614 158.50079346 C-94.60917487 170.71553362 -93.78878697 183.12183002 -92.1910553 195.23294067 C-92.03237473 196.47510345 -91.87369415 197.71726624 -91.71020508 198.99707031 C-91.55240067 200.07614655 -91.39459625 201.15522278 -91.23200989 202.26699829 C-91.25896419 206.00938251 -92.32088185 208.13813808 -94.25390625 211.30712891 C-97.40039682 213.69412175 -100.39504471 213.77964256 -104.25390625 213.30712891 C-107.5915167 211.15622439 -108.98861558 210.10300092 -110.25390625 206.30712891 C-110.38038946 203.77982873 -110.45268913 201.27832806 -110.47851562 198.74975586 C-110.4899057 197.98188248 -110.50129578 197.21400909 -110.51303101 196.42286682 C-110.62361817 188.39593993 -110.67109854 180.36810411 -110.71386719 172.34057617 C-110.73613424 168.53510391 -110.77789275 164.7306136 -110.83691406 160.92553711 C-110.9081294 156.3248552 -110.94471731 151.72509661 -110.95698547 147.12389183 C-110.96736407 145.37479601 -110.98973624 143.62572689 -111.02458191 141.8769474 C-111.3153424 126.48791289 -111.3153424 126.48791289 -107.50366211 121.97192383 C-106.11064499 120.723517 -104.69032862 119.50533885 -103.25390625 118.30712891 C-101.82636498 116.868617 -100.39990882 115.42890735 -98.98928165 113.97380543 C-96.20729919 111.11283884 -93.36712136 108.30992436 -90.5390625 105.49462891 C-89.31573402 104.27316907 -88.09262877 103.05148562 -86.86973572 101.82958984 C-83.67448864 98.6381328 -80.47624839 95.44969223 -77.27734375 92.26190186 C-74.00402192 88.99887028 -70.73358351 85.73295147 -67.46289062 82.46728516 C-61.06269116 76.07776093 -54.65932118 69.6914244 -48.25390625 63.30712891 C-49.30178183 60.05948199 -50.384554 57.03209782 -51.8515625 53.94384766 C-53.45529801 49.78485669 -53.75531876 46.52405647 -53.69140625 42.11962891 C-53.68310791 41.37712891 -53.67480957 40.63462891 -53.66625977 39.86962891 C-53.33217172 28.8554236 -49.7913271 20.33807136 -42.25390625 12.30712891 C-41.58359375 11.58396484 -40.91328125 10.86080078 -40.22265625 10.11572266 C-34.54436036 4.53000767 -28.83702667 2.40106387 -21.25390625 0.30712891 C-15.53846206 -2.55059319 -5.99958006 -1.84432498 0 0 Z " fill="#0A0D10" transform="translate(701.25390625,2.69287109375)"/>
<path d="M0 0 C10.91071084 8.88960024 15.5095987 18.36261995 17.28515625 32.2265625 C17.61400173 39.17521055 15.39543262 46.35348986 12.1875 52.4375 C10.72292189 54.83828175 10.72292189 54.83828175 11.58081055 56.80198669 C13.52759589 59.81713036 15.97442463 62.22752125 18.51953125 64.73071289 C19.36371109 65.57292137 19.36371109 65.57292137 20.22494507 66.43214417 C22.08290673 68.28362438 23.94773792 70.12802766 25.8125 71.97265625 C27.10573234 73.25961674 28.39844991 74.54709471 29.69067383 75.83506775 C33.09201125 79.22310737 36.49887029 82.60553527 39.90734863 85.98638916 C45.36429995 91.40020818 50.81454741 96.82075543 56.26156616 102.24456596 C58.16590529 104.13867752 60.07361883 106.02934142 61.98168945 107.91969299 C63.14806432 109.07924011 64.31433001 110.23889706 65.48046875 111.39868164 C66.27848404 112.18659088 66.27848404 112.18659088 67.09262085 112.99041748 C71.92056174 117.80335982 73.25056042 120.2910194 73.2746582 127.13012695 C73.27976913 127.85244507 73.28488007 128.57476318 73.29014587 129.31896973 C73.30405465 131.70882437 73.30308374 134.09839092 73.30078125 136.48828125 C73.30466837 138.1511394 73.30900308 139.81399655 73.31376648 141.47685242 C73.3212321 144.96466283 73.32093561 148.45237204 73.31567383 151.94018555 C73.30988826 156.40238242 73.32678623 160.864163 73.3500185 165.32629108 C73.36477855 168.76218577 73.3656243 172.19798083 73.36250877 175.6339016 C73.36302116 177.27848317 73.36824339 178.92307045 73.37832069 180.56762123 C73.39070777 182.87258213 73.38387972 185.17674064 73.37231445 187.48168945 C73.37294388 188.79168411 73.3735733 190.10167877 73.3742218 191.45137024 C72.96623836 195.32015121 72.05830859 197.71618375 70 201 C66.32705125 203.4486325 63.26731035 203.83183438 59 203 C55.78045355 200.46546343 54.29567565 198.88702695 53 195 C53.19538528 193.12945997 53.47196747 191.26703144 53.79101562 189.41357422 C59.49557824 154.20387888 59.49557824 154.20387888 49.0016861 121.39545441 C41.8669549 111.75781278 33.32131085 103.39050203 24.5 95.3125 C23.81833771 94.68805748 23.13667542 94.06361496 22.43435669 93.42024994 C13.87605131 85.63213136 5.07222696 78.18205173 -4 71 C-4.88210648 71.28258667 -5.76421295 71.56517334 -6.67304993 71.85632324 C-8.41717415 72.40600769 -8.41717415 72.40600769 -10.1965332 72.96679688 C-11.34676468 73.33188354 -12.49699615 73.69697021 -13.68208313 74.07312012 C-17.93105286 75.26009517 -21.79999487 75.6144783 -26.1875 75.5 C-27.33883423 75.48187256 -27.33883423 75.48187256 -28.51342773 75.46337891 C-34.65789735 75.24878742 -39.63237157 74.09633539 -45 71 C-45.76441406 70.59910156 -46.52882812 70.19820313 -47.31640625 69.78515625 C-56.92589893 64.17555393 -62.83348593 54.48348725 -66 44 C-68.80904111 32.25481469 -66.93684907 21.57567858 -60.8125 11.3125 C-54.59747033 2.07464668 -45.33716967 -5.39490456 -34.23046875 -7.72265625 C-21.33643805 -9.32594203 -11.02568616 -6.80400896 0 0 Z " fill="#0A0D10" transform="translate(241,10)"/>
<path d="M0 0 C3.02751053 2.454529 4.76677817 5.3003345 6 9 C6.08971327 11.22336607 6.11757853 13.44938893 6.11352539 15.67456055 C6.11367142 16.347995 6.11381744 17.02142944 6.1139679 17.715271 C6.11327175 19.93911979 6.10549332 22.16288461 6.09765625 24.38671875 C6.09579101 25.92942764 6.09436761 27.47213711 6.09336853 29.0148468 C6.08955169 33.07383868 6.07972851 37.13279473 6.06866455 41.19177246 C6.05843252 45.33422359 6.05386707 49.4766805 6.04882812 53.61914062 C6.03810551 61.74611018 6.02103907 69.87305063 6 78 C6.94101562 77.979375 7.88203125 77.95875 8.8515625 77.9375 C11.95075687 77.99902247 13.40916945 78.40564274 16 80 C16 80.66 16 81.32 16 82 C16.598125 82.09667969 17.19625 82.19335938 17.8125 82.29296875 C20.45880245 83.1482915 21.29435917 84.14800471 23 86.3125 C24.65728458 88.35703952 26.26039743 90.26039743 28.125 92.125 C35.09542926 99.09542926 37.07972597 104.94661673 37.19042969 114.76074219 C37.16660423 131.44650215 37.16660423 131.44650215 33.25 136.0625 C32.5075 136.701875 31.765 137.34125 31 138 C30.06518744 139.25754547 29.15054982 140.53019537 28.25 141.8125 C23.37220439 148.41042504 17.3584638 153.3929099 10 157 C9.01 157 8.02 157 7 157 C7 157.66 7 158.32 7 159 C1.03487949 161.98256026 -10.01861515 160.60353057 -16.3125 158.875 C-28.34742239 154.57246451 -37.08699433 148.77785769 -42.60546875 137.1328125 C-43.06566406 136.09898437 -43.52585937 135.06515625 -44 134 C-44.54398437 132.92105469 -45.08796875 131.84210938 -45.6484375 130.73046875 C-47.33397514 126.07819 -47.49391147 122.09483549 -47.4375 117.1875 C-47.43049072 115.86335083 -47.43049072 115.86335083 -47.42333984 114.51245117 C-47.2802688 108.21092796 -46.62496393 102.35806713 -43 97 C-42.01 96.505 -42.01 96.505 -41 96 C-40.54367187 94.8553125 -40.54367187 94.8553125 -40.078125 93.6875 C-37.69654204 87.75080046 -33.19646567 84.0096461 -27.46484375 81.375 C-18.57088883 78 -18.57088883 78 -14 78 C-14.00666183 77.12160965 -14.01332367 76.2432193 -14.02018738 75.33821106 C-14.08033305 67.05460879 -14.125992 58.77108001 -14.15543652 50.48730946 C-14.17108322 46.22866808 -14.19230318 41.97020734 -14.22631836 37.71166992 C-14.25894752 33.60086482 -14.27686051 29.49023332 -14.28463173 25.3793087 C-14.29016887 23.81203161 -14.30098165 22.24476387 -14.31719017 20.67756081 C-14.33901228 18.47990107 -14.34196501 16.28295597 -14.34057617 14.08520508 C-14.34723801 12.83500076 -14.35389984 11.58479645 -14.36076355 10.29670715 C-13.96972714 6.72336245 -13.12571702 4.86340784 -11 2 C-7.5762864 -0.5677852 -4.15145795 -0.58266077 0 0 Z " fill="#0C0F12" transform="translate(510,691)"/>
<path d="M0 0 C3.42765324 2.06772585 5.70709412 4.12128235 7 8 C7.11835778 10.31463704 7.17701089 12.63246295 7.20532227 14.94995117 C7.21522186 15.65264633 7.22512146 16.35534149 7.23532104 17.07933044 C7.26689234 19.40050901 7.29167613 21.72170805 7.31640625 24.04296875 C7.33697956 25.65294423 7.35797613 27.26291436 7.37937927 28.87287903 C7.43456106 33.10936138 7.48398749 37.34589216 7.53222656 41.5824585 C7.58247001 45.90592761 7.63814123 50.22932644 7.69335938 54.55273438 C7.80089334 63.03509681 7.90234887 71.51751807 8 80 C10.64 80.33 13.28 80.66 16 81 C16.33 81.99 16.66 82.98 17 84 C17.70125 84.226875 18.4025 84.45375 19.125 84.6875 C23.52018706 86.69399844 26.03144223 90.27171655 29 94 C29.51949219 94.65097656 30.03898437 95.30195312 30.57421875 95.97265625 C37.09052625 105.23830992 37.48576993 117.106605 36 128 C34.10165492 136.17343019 30.30097879 145.28214521 24 151 C20.6875 152.375 20.6875 152.375 18 153 C17.67 153.66 17.34 154.32 17 155 C15.04183114 155.57678022 13.0566772 156.06369964 11.0625 156.5 C6.55264579 157.35177899 6.55264579 157.35177899 3 160 C-9.7568673 161.23965038 -21.93750129 160.21460411 -32.3762207 152.19018555 C-37.82690933 147.70133839 -41.31234642 143.9756348 -43 137 C-43.72516198 135.72687727 -44.4546781 134.45622907 -45.1875 133.1875 C-48.76459476 125.2291574 -48.5947521 113.93725834 -45.94140625 105.72265625 C-44.74862921 103.36895675 -43.42363781 101.21742373 -42 99 C-41.68160156 98.17242188 -41.36320312 97.34484375 -41.03515625 96.4921875 C-38.34644532 90.01898912 -32.17916044 84.23358608 -26 81 C-23.32743811 80.10130401 -20.77961039 79.53641604 -18 79 C-18 78.34 -18 77.68 -18 77 C-16.68 77 -15.36 77 -14 77 C-14.00362549 75.93442871 -14.00725098 74.86885742 -14.01098633 73.77099609 C-14.04083451 60.86305586 -13.94089364 47.95811789 -13.73754883 35.05175781 C-13.70381798 32.74226415 -13.67594585 30.43267841 -13.65356445 28.12304688 C-13.62012822 24.7405334 -13.56794316 21.3587644 -13.51171875 17.9765625 C-13.50532883 16.94641022 -13.4989389 15.91625793 -13.49235535 14.85488892 C-13.30898397 5.96751111 -13.30898397 5.96751111 -10 2 C-6.78446554 -0.32849047 -3.88978623 -0.54457007 0 0 Z " fill="#0B0E11" transform="translate(402,690)"/>
<path d="M0 0 C0.71736328 0.00193359 1.43472656 0.00386719 2.17382812 0.00585938 C6.97430917 0.04510036 11.58205992 0.33659332 16.3125 1.125 C16.3125 1.785 16.3125 2.445 16.3125 3.125 C17.55 3.393125 18.7875 3.66125 20.0625 3.9375 C29.38990483 7.05155446 37.28142639 15.65795636 41.640625 24.25 C42.3125 26.125 42.3125 26.125 42.3125 29.125 C43.1989772 29.11389694 44.08545441 29.10279388 44.99879456 29.09135437 C53.37001524 28.99099609 61.74103268 28.91495584 70.11271763 28.86593914 C74.41630873 28.83989136 78.71940102 28.80458265 83.02270508 28.74780273 C87.17893789 28.69330914 91.3346922 28.66354323 95.49125481 28.65061378 C97.07367417 28.64140483 98.65606858 28.62342147 100.23828316 28.59634972 C114.18142474 28.36736029 114.18142474 28.36736029 118.79663086 31.40942383 C121.3125 34.125 121.3125 34.125 122 38.0625 C121.63092029 42.2087572 119.96920691 44.92132402 117.3125 48.125 C114.37003273 49.59623364 111.76064978 49.24424765 108.47607422 49.23852539 C107.77352509 49.23867142 107.07097595 49.23881744 106.34713745 49.2389679 C104.02045627 49.23827014 101.69385473 49.23048419 99.3671875 49.22265625 C97.75578861 49.22079158 96.14438916 49.21936791 94.5329895 49.21836853 C90.28821248 49.2145472 86.04346958 49.20472018 81.79870605 49.19366455 C77.46867332 49.18344218 73.13863507 49.17886914 68.80859375 49.17382812 C60.30988016 49.16309758 51.81119432 49.14602575 43.3125 49.125 C43.11678406 49.95472321 42.92106812 50.78444641 42.71942139 51.63931274 C42.45719788 52.72465302 42.19497437 53.80999329 41.92480469 54.92822266 C41.66721375 56.00544586 41.4096228 57.08266907 41.14422607 58.1925354 C40.17931161 61.59458999 38.89176299 63.84464019 36.5625 66.5 C35.85996094 67.30308594 35.15742188 68.10617187 34.43359375 68.93359375 C30.18868898 73.3192136 25.80915876 77.37667062 20.3125 80.125 C19.75949219 80.4034375 19.20648438 80.681875 18.63671875 80.96875 C8.9599735 85.02734607 -4.87919796 84.70181808 -14.65234375 81.09765625 C-20.41122279 78.3453321 -24.36511015 74.67822533 -28.34765625 69.734375 C-29.71978953 67.99374579 -29.71978953 67.99374579 -31.8125 66.3125 C-34.86140466 62.75544456 -36.14407478 58.50259099 -37.6875 54.125 C-38.1 53.01125 -38.5125 51.8975 -38.9375 50.75 C-40.9499078 41.02336232 -39.68361615 33.11974227 -35.6875 24.125 C-35.41035156 23.41601562 -35.13320313 22.70703125 -34.84765625 21.9765625 C-30.26740614 11.29634797 -21.03567801 5.47558535 -10.6875 1.125 C-7.07311025 -0.07979658 -3.76108909 -0.02404349 0 0 Z " fill="#0C0F12" transform="translate(93.6875,465.875)"/>
<path d="M0 0 C1.18625977 0.02308228 1.18625977 0.02308228 2.39648438 0.04663086 C13.43280971 0.41050313 20.42008678 3.71235003 29.125 10.4375 C30.1975 11.159375 31.27 11.88125 32.375 12.625 C36.5708545 16.91621483 38.70779796 21.99701282 41.125 27.4375 C41.46917969 28.14261719 41.81335938 28.84773438 42.16796875 29.57421875 C45.31812682 36.62879808 45.17720266 44.80437188 42.9375 52.125 C37.63885104 65.73958413 28.88953386 76.03142416 15.48046875 82.08203125 C10.64054218 83.83338728 6.03600979 83.84505052 0.9375 83.75 C0.06158203 83.75322266 -0.81433594 83.75644531 -1.71679688 83.75976562 C-6.19535522 83.72241601 -9.81180459 83.54901563 -13.875 81.4375 C-13.875 80.7775 -13.875 80.1175 -13.875 79.4375 C-14.4525 79.293125 -15.03 79.14875 -15.625 79 C-16.3675 78.814375 -17.11 78.62875 -17.875 78.4375 C-18.514375 78.355 -19.15375 78.2725 -19.8125 78.1875 C-22.99372869 77.03068957 -24.59806004 74.92624833 -26.875 72.4375 C-27.71611328 71.61958984 -27.71611328 71.61958984 -28.57421875 70.78515625 C-33.84595566 65.37619408 -38.875 57.2363655 -38.875 49.4375 C-40.19591644 49.44416183 -40.19591644 49.44416183 -41.54351807 49.45095825 C-49.84216561 49.49103121 -58.14078066 49.52148251 -66.43950272 49.54112434 C-70.70596697 49.55156186 -74.97235128 49.56572048 -79.23876953 49.58837891 C-83.35604386 49.61010842 -87.47324129 49.62206887 -91.59056854 49.62725449 C-93.16144776 49.63095005 -94.73232277 49.63816652 -96.30316925 49.64896011 C-98.50331216 49.66347658 -100.70313722 49.66547789 -102.90332031 49.66455078 C-104.15574524 49.668992 -105.40817017 49.67343323 -106.69854736 49.67800903 C-109.73480751 49.44811485 -111.3734437 49.1094767 -113.875 47.4375 C-116.28442183 44.51177349 -117.11173331 42.09264518 -117.3125 38.375 C-116.875 34.4375 -116.875 34.4375 -115.0625 32 C-111.09708848 29.1675632 -107.67287016 29.29017904 -102.92504883 29.23217773 C-101.87100609 29.21732834 -101.87100609 29.21732834 -100.79566956 29.20217896 C-98.47449099 29.17060766 -96.15329195 29.14582387 -93.83203125 29.12109375 C-92.22205577 29.10052044 -90.61208564 29.07952387 -89.00212097 29.05812073 C-84.76563862 29.00293894 -80.52910784 28.95351251 -76.2925415 28.90527344 C-71.96907239 28.85502999 -67.64567356 28.79935877 -63.32226562 28.74414062 C-54.83990319 28.63660666 -46.35748193 28.53515113 -37.875 28.4375 C-37.68689758 27.82723969 -37.49879517 27.21697937 -37.30499268 26.58822632 C-37.0486908 25.78357941 -36.79238892 24.9789325 -36.52832031 24.14990234 C-36.2783429 23.35401703 -36.02836548 22.55813171 -35.77081299 21.73812866 C-34.39334303 18.20050762 -32.23652877 15.7603603 -29.625 13.0625 C-29.17253906 12.55589844 -28.72007812 12.04929687 -28.25390625 11.52734375 C-24.82313564 7.8659331 -21.51000347 6.21789833 -16.875 4.4375 C-15.57756498 3.72316509 -14.28338064 3.00290026 -12.9921875 2.27734375 C-8.63038445 0.07544173 -4.82516872 -0.14419688 0 0 Z " fill="#0C0F12" transform="translate(805.875,466.5625)"/>
<path d="M0 0 C7.52147331 4.72142328 13.70417584 10.7241445 15.875 19.5625 C15.91625 20.366875 15.9575 21.17125 16 22 C16.66 22 17.32 22 18 22 C19.40428466 26.21285399 19.22437686 30.21141495 19.25 34.625 C19.270625 35.48996094 19.29125 36.35492188 19.3125 37.24609375 C19.38320319 49.03585021 14.93733485 57.80683743 6.82421875 66.26953125 C0.37853957 72.26991308 -5.3134508 75.61927334 -14 77 C-14.00586624 77.86364166 -14.01173248 78.72728333 -14.01777649 79.61709595 C-14.07575286 87.76815219 -14.14785794 95.91893585 -14.23571491 104.06972694 C-14.2803848 108.25984386 -14.31964823 112.4498643 -14.34643555 116.64013672 C-14.37250249 120.6862907 -14.41292848 124.73207279 -14.46318626 128.77799606 C-14.47983214 130.3192519 -14.49136061 131.86057202 -14.49761391 133.40190506 C-14.5072802 135.56601925 -14.53536736 137.72918693 -14.56762695 139.89306641 C-14.57873001 141.12328522 -14.58983307 142.35350403 -14.60127258 143.6210022 C-15.04177917 147.35405573 -16.07346521 149.79154874 -18 153 C-21.14649057 155.38699285 -24.14113846 155.47251366 -28 155 C-32.01286192 152.53756201 -33.60425318 150.4327181 -35 146 C-35.2784729 142.74125671 -35.2784729 142.74125671 -35.31884766 139.0065918 C-35.32889328 138.32311172 -35.3389389 137.63963165 -35.34928894 136.93544006 C-35.38002905 134.69004103 -35.39713014 132.44476074 -35.4140625 130.19921875 C-35.43278157 128.63693731 -35.45235554 127.07466589 -35.4727478 125.5124054 C-35.52399709 121.41077599 -35.56366121 117.30911384 -35.60089111 113.20733643 C-35.64097605 109.01769964 -35.69204787 104.82819826 -35.7421875 100.63867188 C-35.83886144 92.42587387 -35.92329335 84.21300865 -36 76 C-36.615336 75.7365831 -37.230672 75.4731662 -37.86465454 75.20176697 C-39.07754654 74.67444725 -39.07754654 74.67444725 -40.31494141 74.13647461 C-41.1159024 73.79055771 -41.9168634 73.44464081 -42.74209595 73.08824158 C-45.7221143 71.65196271 -47.96335774 69.81414658 -50.375 67.5625 C-51.18710937 66.82128906 -51.99921875 66.08007812 -52.8359375 65.31640625 C-55.0040664 62.99564734 -56.48170781 60.77984692 -58 58 C-58.36222656 57.35417969 -58.72445313 56.70835938 -59.09765625 56.04296875 C-64.31635596 46.00700778 -66.1615097 34.37761972 -62.9375 23.3125 C-58.36462554 11.86967927 -50.77933362 2.616645 -39.75 -3 C-27.35321638 -7.67263383 -11.30889022 -6.95796205 0 0 Z " fill="#0B0E11" transform="translate(530,60)"/>
<path d="M0 0 C0.71736328 0.00193359 1.43472656 0.00386719 2.17382812 0.00585938 C6.97430917 0.04510036 11.58205992 0.33659332 16.3125 1.125 C16.3125 1.785 16.3125 2.445 16.3125 3.125 C17.55 3.393125 18.7875 3.66125 20.0625 3.9375 C24.74085065 5.47965045 28.05225592 8.14191358 31.625 11.4375 C32.12805664 11.89938721 32.63111328 12.36127441 33.14941406 12.8371582 C38.78239374 18.22869762 41.39295213 22.3924643 42.3125 30.125 C43.18644913 30.11389694 44.06039825 30.10279388 44.96083069 30.09135437 C53.21432094 29.99099016 61.46760498 29.91495288 69.7215662 29.86593914 C73.96462694 29.83989291 78.20718164 29.80458717 82.44995117 29.74780273 C86.54783 29.69330341 90.64522343 29.66354207 94.74343681 29.65061378 C96.30352859 29.64140584 97.86359508 29.62342444 99.42347908 29.59634972 C113.16833911 29.36736319 113.16833911 29.36736319 117.78295898 32.40942383 C120.3125 35.125 120.3125 35.125 121 39.0625 C120.63092029 43.2087572 118.96920691 45.92132402 116.3125 49.125 C113.39167545 50.58541228 110.82948631 50.24428796 107.56787109 50.23852539 C106.52867775 50.23874443 106.52867775 50.23874443 105.4684906 50.2389679 C103.17427459 50.23827018 100.88013936 50.23048442 98.5859375 50.22265625 C96.99695887 50.22079157 95.40797966 50.2193679 93.81900024 50.21836853 C89.63340675 50.21454731 85.44784787 50.20472039 81.26226807 50.19366455 C76.99255847 50.18344194 72.7228433 50.17886909 68.453125 50.17382812 C60.07290077 50.16309778 51.69270469 50.14602608 43.3125 50.125 C43.11678406 50.88366867 42.92106812 51.64233734 42.71942139 52.42399597 C42.45719788 53.41740494 42.19497437 54.4108139 41.92480469 55.43432617 C41.66721375 56.41986984 41.4096228 57.40541351 41.14422607 58.42082214 C38.46863598 67.11992599 30.13954557 73.69525709 22.9375 78.8125 C22.07125 79.245625 21.205 79.67875 20.3125 80.125 C19.75949219 80.4034375 19.20648438 80.681875 18.63671875 80.96875 C8.9599735 85.02734607 -4.87919796 84.70181808 -14.65234375 81.09765625 C-20.41122279 78.3453321 -24.36511015 74.67822533 -28.34765625 69.734375 C-29.71978953 67.99374579 -29.71978953 67.99374579 -31.8125 66.3125 C-34.86140466 62.75544456 -36.14407478 58.50259099 -37.6875 54.125 C-38.1 53.01125 -38.5125 51.8975 -38.9375 50.75 C-40.9499078 41.02336232 -39.68361615 33.11974227 -35.6875 24.125 C-35.41035156 23.41601562 -35.13320313 22.70703125 -34.84765625 21.9765625 C-30.26740614 11.29634797 -21.03567801 5.47558535 -10.6875 1.125 C-7.07311025 -0.07979658 -3.76108909 -0.02404349 0 0 Z " fill="#0C0F12" transform="translate(93.6875,357.875)"/>
<path d="M0 0 C1.18625977 0.02308228 1.18625977 0.02308228 2.39648438 0.04663086 C13.43280971 0.41050313 20.42008678 3.71235003 29.125 10.4375 C30.1975 11.159375 31.27 11.88125 32.375 12.625 C36.5708545 16.91621483 38.70779796 21.99701282 41.125 27.4375 C41.46917969 28.14261719 41.81335938 28.84773438 42.16796875 29.57421875 C45.31812682 36.62879808 45.17720266 44.80437188 42.9375 52.125 C37.63885104 65.73958413 28.88953386 76.03142416 15.48046875 82.08203125 C10.64054218 83.83338728 6.03600979 83.84505052 0.9375 83.75 C0.06158203 83.75322266 -0.81433594 83.75644531 -1.71679688 83.75976562 C-6.19535522 83.72241601 -9.81180459 83.54901563 -13.875 81.4375 C-13.875 80.7775 -13.875 80.1175 -13.875 79.4375 C-14.4525 79.293125 -15.03 79.14875 -15.625 79 C-16.3675 78.814375 -17.11 78.62875 -17.875 78.4375 C-18.514375 78.355 -19.15375 78.2725 -19.8125 78.1875 C-22.99372869 77.03068957 -24.59806004 74.92624833 -26.875 72.4375 C-27.43574219 71.880625 -27.99648438 71.32375 -28.57421875 70.75 C-33.55292904 65.56609341 -38.875 57.91455498 -38.875 50.4375 C-39.74308289 50.44194122 -40.61116577 50.44638245 -41.5055542 50.45095825 C-49.68647235 50.49103259 -57.86735754 50.52148321 -66.04835129 50.54112434 C-70.254282 50.55156149 -74.4601316 50.56571943 -78.66601562 50.58837891 C-82.72493538 50.61010975 -86.78377711 50.62206915 -90.84275055 50.62725449 C-92.39130125 50.63094981 -93.93984768 50.63816583 -95.48836517 50.64896011 C-97.65737638 50.66347835 -99.82606521 50.66547782 -101.99511719 50.66455078 C-103.84710724 50.67121262 -103.84710724 50.67121262 -105.73651123 50.67800903 C-108.75262445 50.4468779 -110.38612954 50.09531477 -112.875 48.4375 C-115.28442183 45.51177349 -116.11173331 43.09264518 -116.3125 39.375 C-115.875 35.4375 -115.875 35.4375 -114.0625 33 C-110.09842719 30.16851942 -106.75912449 30.3155812 -102.0168457 30.32397461 C-101.32390411 30.32382858 -100.63096252 30.32368256 -99.91702271 30.3235321 C-97.62824363 30.32422837 -95.3395461 30.3320074 -93.05078125 30.33984375 C-91.46323186 30.34170894 -89.87568189 30.34313237 -88.28813171 30.34413147 C-84.1107728 30.34794866 -79.93344869 30.35777214 -75.75610352 30.36883545 C-71.49300609 30.37906672 -67.22990304 30.38363277 -62.96679688 30.38867188 C-54.60284862 30.39939511 -46.23892864 30.41646197 -37.875 30.4375 C-37.68689758 29.68513062 -37.49879517 28.93276123 -37.30499268 28.15759277 C-37.0486908 27.16908325 -36.79238892 26.18057373 -36.52832031 25.16210938 C-36.2783429 24.18286499 -36.02836548 23.20362061 -35.77081299 22.19470215 C-34.49842678 18.27845398 -32.50022141 15.80480069 -29.625 12.9375 C-29.17253906 12.43992187 -28.72007812 11.94234375 -28.25390625 11.4296875 C-24.82832219 7.84098039 -21.45342312 6.20598962 -16.875 4.4375 C-15.57770501 3.72291082 -14.28351723 3.00265714 -12.9921875 2.27734375 C-8.63038445 0.07544173 -4.82516872 -0.14419688 0 0 Z " fill="#0C0F12" transform="translate(805.875,358.5625)"/>
<path d="M0 0 C7.52147331 4.72142328 13.70417584 10.7241445 15.875 19.5625 C15.91625 20.366875 15.9575 21.17125 16 22 C16.66 22 17.32 22 18 22 C19.40428466 26.21285399 19.22437686 30.21141495 19.25 34.625 C19.270625 35.48996094 19.29125 36.35492188 19.3125 37.24609375 C19.38320319 49.03585021 14.93733485 57.80683743 6.82421875 66.26953125 C0.37853957 72.26991308 -5.3134508 75.61927334 -14 77 C-13.99333817 77.85111359 -13.98667633 78.70222717 -13.97981262 79.57913208 C-13.91962404 87.61224728 -13.87398625 95.64528639 -13.84456348 103.67857552 C-13.82892825 107.80827605 -13.80772939 111.93778978 -13.77368164 116.06738281 C-13.74101137 120.05499983 -13.72313087 124.04243751 -13.71536827 128.03017807 C-13.70983848 129.54918108 -13.69904008 131.06817462 -13.68280983 132.58710098 C-13.66093289 134.71990177 -13.65803725 136.85196779 -13.65942383 138.98486328 C-13.65276199 140.1973172 -13.64610016 141.40977112 -13.63923645 142.65896606 C-14.04233484 146.39206323 -15.07398211 148.79702816 -17 152 C-20.14649057 154.38699285 -23.14113846 154.47251366 -27 154 C-30.33761045 151.84909549 -31.73470933 150.79587201 -33 147 C-33.08989374 144.71540326 -33.11757205 142.42820674 -33.11352539 140.1418457 C-33.11367142 139.44890411 -33.11381744 138.75596252 -33.1139679 138.04202271 C-33.11327163 135.75324363 -33.1054926 133.4645461 -33.09765625 131.17578125 C-33.09579106 129.58823186 -33.09436763 128.00068189 -33.09336853 126.41313171 C-33.08955134 122.2357728 -33.07972786 118.05844869 -33.06866455 113.88110352 C-33.05843328 109.61800609 -33.05386723 105.35490304 -33.04882812 101.09179688 C-33.03810489 92.72784862 -33.02103803 84.36392864 -33 76 C-33.60618164 75.88245361 -34.21236328 75.76490723 -34.83691406 75.64379883 C-35.63838867 75.47904053 -36.43986328 75.31428223 -37.265625 75.14453125 C-38.05743164 74.98573486 -38.84923828 74.82693848 -39.66503906 74.66333008 C-48.46351661 72.16380441 -54.77073573 63.6896561 -59.06640625 56.12109375 C-64.36538994 46.12928317 -66.15255223 34.34687678 -62.9375 23.3125 C-58.36462554 11.86967927 -50.77933362 2.616645 -39.75 -3 C-27.35321638 -7.67263383 -11.30889022 -6.95796205 0 0 Z " fill="#0A0D10" transform="translate(422,60)"/>
<path d="M0 0 C3.125 1.5625 3.125 1.5625 5 4 C5.40040892 7.80388473 5.20776206 10.37671381 4 14 C2.10498047 15.31518555 2.10498047 15.31518555 -0.3828125 16.63671875 C-1.29659668 17.12817383 -2.21038086 17.61962891 -3.15185547 18.12597656 C-4.13299316 18.6412793 -5.11413086 19.15658203 -6.125 19.6875 C-7.11516113 20.21698242 -8.10532227 20.74646484 -9.12548828 21.29199219 C-12.07933829 22.86961119 -15.03939935 24.43509661 -18 26 C-19.59960301 26.8542627 -21.19862455 27.70961571 -22.796875 28.56640625 C-26.19335169 30.38631177 -29.59473759 32.19659 -33 34 C-28.09942005 36.70031956 -23.26364652 38.64624026 -17.9375 40.375 C-12.51838886 42.13816562 -7.13784823 43.96910792 -1.8125 46 C-0.60207031 46.45375 0.60835938 46.9075 1.85546875 47.375 C5.31504807 49.16280745 6.95498769 50.70666752 9 54 C9 57.88582276 8.53567796 60.16434238 6.4375 63.4375 C2.9861761 65.64988712 -0.05302094 65.46377102 -4 65 C-8.08344931 63.98102599 -12.0282673 62.63617404 -16 61.25 C-17.0415625 60.90195312 -18.083125 60.55390625 -19.15625 60.1953125 C-24.39344256 58.40990594 -29.30889568 56.43934147 -34.20288086 53.86499023 C-37.02466111 52.50680963 -39.97758517 51.78740955 -43 51 C-61.48303515 45.06125703 -61.48303515 45.06125703 -65 41 C-66.03573464 37.77509897 -66.20720306 35.17570536 -65 32 C-60.82834985 27.93025275 -56.16459245 25.19450645 -51.0625 22.4375 C-50.29760254 22.01766846 -49.53270508 21.59783691 -48.74462891 21.1652832 C-41.21537855 17.05876018 -33.60196096 13.10876195 -25.96899414 9.19897461 C-21.73135582 7.01543178 -17.62522467 4.80656235 -13.64453125 2.1796875 C-9.09352589 -0.72834937 -5.28141535 -0.96025734 0 0 Z " fill="#F8F8F8" transform="translate(415,422)"/>
<path d="M0 0 C3.08276367 1.17407227 3.08276367 1.17407227 6.16796875 2.81640625 C7.30943359 3.41646484 8.45089844 4.01652344 9.62695312 4.63476562 C10.81387336 5.27721208 12.00072211 5.91979063 13.1875 6.5625 C14.34314453 7.17158203 15.49878906 7.78066406 16.68945312 8.40820312 C23.36200604 11.94866495 29.90543347 15.67185841 36.41235352 19.5065918 C39.34838575 21.20106384 42.30570207 22.68922198 45.375 24.125 C53.73738493 28.28424395 53.73738493 28.28424395 57 32 C57.72643332 36.06802661 57.61071037 38.05033076 55.3671875 41.5390625 C52.56023632 44.45718007 50.28484292 45.45987068 46.5 46.875 C45.53344482 47.24226196 45.53344482 47.24226196 44.54736328 47.61694336 C38.17101996 50.01126704 31.72720064 52.23174639 25.28979492 54.45556641 C20.42706573 56.13624396 15.60674875 57.88276628 10.8125 59.75 C8.87524223 60.50062545 6.93776814 61.25069306 5 62 C4.17242187 62.32097656 3.34484375 62.64195312 2.4921875 62.97265625 C-2.54484664 64.80818564 -6.63162556 65.63692578 -12 65 C-15.29291844 62.88915485 -15.88775952 61.35652858 -17.0625 57.625 C-16.995164 53.71951197 -16.27632852 52.33646142 -13.72338867 49.46289062 C-10.34764277 46.59740409 -6.26046642 45.36793973 -2.125 43.9375 C-1.19985596 43.60169922 -0.27471191 43.26589844 0.6784668 42.91992188 C3.4448607 41.92360892 6.21947942 40.95610352 9 40 C9.80679199 39.72172363 10.61358398 39.44344727 11.44482422 39.15673828 C15.61616396 37.72741064 19.79961486 36.34205854 24 35 C20.87555591 32.51157506 17.62969469 30.6435603 14.09765625 28.78515625 C12.96005859 28.18123047 11.82246094 27.57730469 10.65039062 26.95507812 C8.85648532 26.00772936 7.06170914 25.06208442 5.26586914 24.1184082 C3.51992171 23.19932461 1.77749984 22.27355361 0.03515625 21.34765625 C-1.0024585 20.80117432 -2.04007324 20.25469238 -3.10913086 19.69165039 C-10.24079269 15.51841461 -10.24079269 15.51841461 -12 12 C-12.49055907 7.66672826 -12.47744439 5.67999656 -9.9375 2.0625 C-6.23482027 -0.53725385 -4.46091607 -0.36745263 0 0 Z " fill="#F8F8F8" transform="translate(493,422)"/>
<path d="M0 0 C2.98379401 0.43330832 4.29042804 0.8624978 6.125 3.30859375 C7.10707435 7.99233298 7.43475136 11.65170001 6.125 16.30859375 C5.465 16.30859375 4.805 16.30859375 4.125 16.30859375 C3.733125 17.56671875 3.34125 18.82484375 2.9375 20.12109375 C1.72964734 23.76174397 0.30794566 27.20763777 -1.3125 30.68359375 C-3.40898038 35.18946204 -5.18270337 39.72722513 -6.83984375 44.41015625 C-7.99485906 47.64419913 -9.20842176 50.85198366 -10.4375 54.05859375 C-10.83066406 55.0846875 -11.22382813 56.11078125 -11.62890625 57.16796875 C-13.85252431 62.77232272 -16.30060705 68.2705605 -18.7800293 73.76489258 C-22.12305295 81.19163821 -25.19357375 88.61505008 -27.875 96.30859375 C-34.055 113.42859375 -34.055 113.42859375 -39.875 117.30859375 C-43.60709414 117.71573129 -45.97768041 117.79176584 -49.3125 115.99609375 C-51.87539317 111.58791751 -51.54724938 107.27237453 -50.875 102.30859375 C-50.1227998 99.97958884 -49.17909934 97.91699876 -48.07421875 95.734375 C-46.68397669 92.92219155 -45.59792441 90.05955164 -44.5 87.12109375 C-42.73277113 82.46449989 -40.85719783 77.87781389 -38.875 73.30859375 C-36.48707623 67.7956575 -34.27577355 62.23990014 -32.140625 56.625 C-28.06829452 45.95398586 -23.67845916 35.44181259 -19.13305664 24.96508789 C-16.54800401 18.97798512 -14.17930973 12.96815401 -12.04296875 6.8046875 C-9.25345132 0.84314355 -6.23451296 -0.33838639 0 0 Z " fill="#F7F7F7" transform="translate(474.875,394.69140625)"/>
<path d="M0 0 C0.78911018 0.04767014 1.57822037 0.09534027 2.39124298 0.14445496 C12.16935242 0.78179206 21.83075761 1.90234699 31.5 3.5 C31.5 3.83 31.5 4.16 31.5 4.5 C30.4086676 4.33226074 30.4086676 4.33226074 29.29528809 4.16113281 C19.88377687 2.79218573 10.4958476 1.94475813 1 1.5 C0.2399894 1.46423481 -0.52002121 1.42846962 -1.30306244 1.39162064 C-22.14317151 0.56592785 -37.66858381 3.7185216 -53.4140625 17.96484375 C-58.73742601 22.88929559 -63.7360872 28.08446281 -68.625 33.4375 C-69.23235992 34.10221313 -69.83971985 34.76692627 -70.46548462 35.45178223 C-77.43894806 43.13534515 -84.13267857 51.01982664 -90.59109497 59.14024353 C-92.5 61.5 -92.5 61.5 -94.5 63.5 C-94.5 52.65372494 -78.02188871 39.00388377 -70.875 31.25 C-70.26979523 30.59043304 -69.66459045 29.93086609 -69.04104614 29.25131226 C-48.24958013 6.80303221 -30.72874038 -1.85704546 0 0 Z " fill="#DCDCDD" transform="translate(175.5,606.5)"/>
<path d="M0 0 C0.33 0 0.66 0 1 0 C1 23.43 1 46.86 1 71 C-2.3 72.32 -5.6 73.64 -9 75 C-9.495 75.99 -9.495 75.99 -10 77 C-11.84765625 77.6328125 -11.84765625 77.6328125 -14.0625 78.125 C-14.79597656 78.29257812 -15.52945312 78.46015625 -16.28515625 78.6328125 C-16.85105469 78.75398437 -17.41695313 78.87515625 -18 79 C-13.94612259 74.18602057 -10.9782058 73.11458074 -5 72 C-5 71.34 -5 70.68 -5 70 C-3.68 70 -2.36 70 -1 70 C-1.00580078 68.9380542 -1.01160156 67.8761084 -1.01757812 66.78198242 C-1.06913652 52.62057607 -0.7973017 38.47024624 -0.5 24.3125 C-0.45164687 21.94206088 -0.4034687 19.57161818 -0.35546875 17.20117188 C-0.23899046 11.46740525 -0.12037407 5.7336861 0 0 Z " fill="#595A5C" transform="translate(389,697)"/>
<path d="M0 0 C0.66 0.99 1.32 1.98 2 3 C1.39671875 2.95359375 0.7934375 2.9071875 0.171875 2.859375 C-5.00228316 2.54283901 -5.00228316 2.54283901 -9.5 4.8125 C-12.15004451 8.67714824 -12.14527601 11.91887303 -12.20532227 16.4909668 C-12.21522186 17.1448941 -12.22512146 17.79882141 -12.23532104 18.4725647 C-12.26687783 20.6314127 -12.29167032 22.79028271 -12.31640625 24.94921875 C-12.33698081 26.44709338 -12.35797742 27.94496228 -12.37937927 29.44282532 C-12.43454809 33.3833857 -12.48398021 37.32399803 -12.53222656 41.26464844 C-12.58247951 45.28650531 -12.63814577 49.30828684 -12.69335938 53.33007812 C-12.80087746 61.21998836 -12.90233648 69.10996166 -13 77 C-13.33 77 -13.66 77 -14 77 C-14.06955626 67.95952597 -14.12283974 58.91914427 -14.15543652 49.87846088 C-14.17108253 45.68035228 -14.1923012 41.48242696 -14.22631836 37.28442383 C-14.25895002 33.23197316 -14.27686102 29.17969862 -14.28463173 25.12712669 C-14.29016843 23.58217789 -14.30098034 22.03723857 -14.31719017 20.49236488 C-14.33901566 18.32583523 -14.34196488 16.16003037 -14.34057617 13.9934082 C-14.34723801 12.76096878 -14.35389984 11.52852936 -14.36076355 10.25874329 C-13.96772507 6.70846357 -13.10905112 4.84857773 -11 2 C-7.59509865 -0.55367601 -4.13453544 -0.38282736 0 0 Z " fill="#585A5C" transform="translate(510,691)"/>
<path d="M0 0 C0.66 0.33 1.32 0.66 2 1 C1.01 1.33 0.02 1.66 -1 2 C-1 2.99 -1 3.98 -1 5 C-3.24916619 5.81487171 -5.49926978 6.62696918 -7.75 7.4375 C-8.38421875 7.66759766 -9.0184375 7.89769531 -9.671875 8.13476562 C-15.41102481 10.19727259 -19.81207772 11.15481365 -25.9375 11.1875 C-27.74541016 11.20876953 -27.74541016 11.20876953 -29.58984375 11.23046875 C-32.86019062 11.00944874 -35.06816515 10.40750326 -38 9 C-35.22934376 8.20998751 -32.83718082 7.8964983 -29.9609375 7.97265625 C-28.84332031 7.99102539 -28.84332031 7.99102539 -27.703125 8.00976562 C-26.14314028 8.04510085 -24.58323658 8.08420116 -23.0234375 8.12695312 C-21.01539773 8.15658566 -19.00645199 8.08515997 -17 8 C-16.34 7.34 -15.68 6.68 -15 6 C-13.1953125 5.3671875 -13.1953125 5.3671875 -11.125 4.875 C-10.44695312 4.70742188 -9.76890625 4.53984375 -9.0703125 4.3671875 C-7 4 -7 4 -3 4 C-2.67 3.01 -2.34 2.02 -2 1 C-1.34 0.67 -0.68 0.34 0 0 Z " fill="#8B8C8E" transform="translate(422,841)"/>
<path d="M0 0 C3.71498206 2.70180514 4.21864509 6.72859315 5 11 C5.27777225 13.84061437 5.33317545 16.647111 5.3125 19.5 C5.31121094 20.2417749 5.30992187 20.9835498 5.30859375 21.74780273 C5.21483321 27.06929938 4.44623851 31.20944958 2 36 C0.90599798 32.57093138 1.03029403 29.70955119 1.33984375 26.140625 C1.43330078 25.02558594 1.52675781 23.91054688 1.62304688 22.76171875 C1.77870117 21.02341797 1.77870117 21.02341797 1.9375 19.25 C2.08735352 17.48849609 2.08735352 17.48849609 2.24023438 15.69140625 C2.48759865 12.79371044 2.74107341 9.89668176 3 7 C2.34 7 1.68 7 1 7 C0.67 4.69 0.34 2.38 0 0 Z " fill="#6A6C6E" transform="translate(897,672)"/>
<path d="M0 0 C0.8971875 0.309375 0.8971875 0.309375 1.8125 0.625 C1.16023438 1.20507812 0.50796875 1.78515625 -0.1640625 2.3828125 C-6.06109322 7.64314963 -6.06109322 7.64314963 -11.6875 13.1875 C-14.1875 15.625 -14.1875 15.625 -16.1875 15.625 C-14.80978051 11.41737019 -12.91822709 9.00168023 -9.75 5.9375 C-8.57630859 4.78701172 -8.57630859 4.78701172 -7.37890625 3.61328125 C-2.85673186 -0.48972546 -2.85673186 -0.48972546 0 0 Z " fill="#454749" transform="translate(76.1875,471.375)"/>
<path d="M0 0 C0.8971875 0.309375 0.8971875 0.309375 1.8125 0.625 C1.16023438 1.20507812 0.50796875 1.78515625 -0.1640625 2.3828125 C-6.06109322 7.64314963 -6.06109322 7.64314963 -11.6875 13.1875 C-14.1875 15.625 -14.1875 15.625 -16.1875 15.625 C-14.80978051 11.41737019 -12.91822709 9.00168023 -9.75 5.9375 C-8.57630859 4.78701172 -8.57630859 4.78701172 -7.37890625 3.61328125 C-2.85673186 -0.48972546 -2.85673186 -0.48972546 0 0 Z " fill="#454749" transform="translate(76.1875,363.375)"/>
<path d="M0 0 C-1.3854241 4.23909658 -3.32712012 6.70658025 -6.5 9.8125 C-7.2940625 10.60269531 -8.088125 11.39289062 -8.90625 12.20703125 C-11 14 -11 14 -13 14 C-12.50557747 9.64908177 -11.21609965 7.73822101 -8.0625 4.75 C-7.35222656 4.06421875 -6.64195312 3.3784375 -5.91015625 2.671875 C-3.82456676 0.84645107 -2.7885505 0 0 0 Z " fill="#484A4C" transform="translate(483,773)"/>
<path d="M0 0 C0.33 0 0.66 0 1 0 C1 6.93 1 13.86 1 21 C-3.455 22.485 -3.455 22.485 -8 24 C-8.33 24.66 -8.66 25.32 -9 26 C-10.84765625 26.6328125 -10.84765625 26.6328125 -13.0625 27.125 C-13.79597656 27.29257812 -14.52945312 27.46015625 -15.28515625 27.6328125 C-15.85105469 27.75398437 -16.41695313 27.87515625 -17 28 C-12.94612259 23.18602057 -9.9782058 22.11458074 -4 21 C-4 20.34 -4 19.68 -4 19 C-2.68 19 -1.36 19 0 19 C0 12.73 0 6.46 0 0 Z " fill="#D0D1D2" transform="translate(388,748)"/>
<path d="M0 0 C0.83144531 0.48339844 0.83144531 0.48339844 1.6796875 0.9765625 C0.26429688 1.01523437 0.26429688 1.01523437 -1.1796875 1.0546875 C-8.96861154 1.39877651 -15.48183033 2.28000166 -22.83203125 5.13671875 C-25.3203125 5.9765625 -25.3203125 5.9765625 -29.3203125 5.9765625 C-29.9803125 4.6565625 -30.6403125 3.3365625 -31.3203125 1.9765625 C-29.6496875 2.3478125 -29.6496875 2.3478125 -27.9453125 2.7265625 C-24.18498923 3.22221144 -21.94023947 2.6042492 -18.5078125 1.0390625 C-12.68939143 -1.5598922 -6.00533978 -2.6488199 0 0 Z " fill="#AEAFB0" transform="translate(695.3203125,818.0234375)"/>
<path d="M0 0 C0.33 0 0.66 0 1 0 C1.05534912 0.66531738 1.11069824 1.33063477 1.16772461 2.01611328 C1.42178083 5.05262713 1.67960673 8.08880973 1.9375 11.125 C2.02451172 12.17171875 2.11152344 13.2184375 2.20117188 14.296875 C2.62349123 19.23957562 3.06319868 24.12188144 4 29 C-0.7062668 24.2937332 -1.17623965 18.78370895 -1.25537109 12.45922852 C-1.23237365 2.46474729 -1.23237365 2.46474729 0 0 Z " fill="#646668" transform="translate(3,680)"/>
<path d="M0 0 C1.13308594 0.24556641 1.13308594 0.24556641 2.2890625 0.49609375 C7.33130119 1.18077669 12.29359795 1.10511821 17.375 1.0625 C18.39722656 1.05798828 19.41945313 1.05347656 20.47265625 1.04882812 C22.98183194 1.037103 25.4908849 1.02069176 28 1 C28 1.66 28 2.32 28 3 C21.71854622 6.14072689 10.48505239 4.47533205 4 2.5 C2.65816189 2.02329436 1.32039295 1.53323562 0 1 C0 0.67 0 0.34 0 0 Z " fill="#67696B" transform="translate(489,847)"/>
<path d="M0 0 C2.15673828 0.37817383 2.15673828 0.37817383 4 1 C2.09236669 2.98861775 0.17484089 4.96565718 -1.75 6.9375 C-2.55824219 7.78344727 -2.55824219 7.78344727 -3.3828125 8.64648438 C-3.91132813 9.18466797 -4.43984375 9.72285156 -4.984375 10.27734375 C-5.70705566 11.02359009 -5.70705566 11.02359009 -6.44433594 11.78491211 C-8.25704528 13.20077124 -9.75631224 13.59147949 -12 14 C-10.41043716 10.18683522 -7.99239303 7.627216 -5.125 4.6875 C-4.26132813 3.78386719 -3.39765625 2.88023437 -2.5078125 1.94921875 C-1.26644531 0.98435547 -1.26644531 0.98435547 0 0 Z " fill="#4A4C4E" transform="translate(191,826)"/>
<path d="M0 0 C0.66 0 1.32 0 2 0 C0.00916034 4.89791803 -3.9091317 7.91163984 -7.6875 11.46484375 C-9.95567665 13.95140903 -10.99896481 15.82057573 -12 19 C-12.66 19 -13.32 19 -14 19 C-12.64104365 13.57231207 -10.22661887 10.58335461 -6.4375 6.6875 C-5.67663086 5.8821582 -5.67663086 5.8821582 -4.90039062 5.06054688 C-3.28549779 3.35534046 -1.66075462 1.66075462 0 0 Z " fill="#3E4143" transform="translate(665,9)"/>
<path d="M0 0 C0.66 0.99 1.32 1.98 2 3 C1.39671875 2.95359375 0.7934375 2.9071875 0.171875 2.859375 C-4.98239806 2.53049792 -4.98239806 2.53049792 -9.4375 4.8125 C-10.65673957 6.5194354 -11.8364281 8.25464215 -13 10 C-13.36627907 4.50581395 -13.36627907 4.50581395 -11.6875 2.1875 C-7.99579307 -0.41036784 -4.36613508 -0.3175371 0 0 Z " fill="#3B3D3F" transform="translate(510,691)"/>
<path d="M0 0 C0.66 0.33 1.32 0.66 2 1 C1.01 1.8971875 1.01 1.8971875 0 2.8125 C-2.3373846 4.87501834 -2.3373846 4.87501834 -2 8 C-3.82193842 9.9249647 -5.89235283 11.37535531 -8 13 C-7.48118887 8.8275894 -6.28848726 6.74583179 -3.4375 3.6875 C-2.79683594 2.99011719 -2.15617187 2.29273438 -1.49609375 1.57421875 C-1.00238281 1.05472656 -0.50867188 0.53523437 0 0 Z " fill="#515355" transform="translate(369,776)"/>
<path d="M0 0 C1 2 1 2 0.4765625 4.09375 C0.05503906 5.28484375 0.05503906 5.28484375 -0.375 6.5 C-0.65085938 7.2940625 -0.92671875 8.088125 -1.2109375 8.90625 C-2 11 -2 11 -3 13 C-3.23172827 15.54615009 -3.41894529 18.07396225 -3.5625 20.625 C-3.60568359 21.33140625 -3.64886719 22.0378125 -3.69335938 22.765625 C-3.79944751 24.51018537 -3.90022889 26.25506697 -4 28 C-4.33 28 -4.66 28 -5 28 C-5.60098801 17.47603221 -5.07231694 9.56494052 0 0 Z " fill="#838486" transform="translate(178,840)"/>
<path d="M0 0 C0 0.66 0 1.32 0 2 C-0.99 2.33 -1.98 2.66 -3 3 C-4.71125037 4.76369652 -4.71125037 4.76369652 -6.375 6.875 C-8.99285209 9.97640439 -11.29391365 12.20310965 -15 14 C-13.47238013 10.37190281 -11.29392861 8.05653702 -8.5 5.3125 C-7.7059375 4.52488281 -6.911875 3.73726562 -6.09375 2.92578125 C-2.9127789 0 -2.9127789 0 0 0 Z " fill="#4E5052" transform="translate(24,653)"/>
<path d="M0 0 C1.6875 0.125 1.6875 0.125 4 1 C5.25766613 2.48340107 6.51186196 3.97146335 7.69921875 5.51171875 C9.48232684 7.55185143 11.67701321 8.64492437 14 10 C14.33 10.99 14.66 11.98 15 13 C10.73439116 11.58581617 7.9940014 9.51748869 4.6875 6.5 C3.80449219 5.7059375 2.92148437 4.911875 2.01171875 4.09375 C0 2 0 2 0 0 Z " fill="#5B5D5F" transform="translate(362,833)"/>
<path d="M0 0 C2.475 0.495 2.475 0.495 5 1 C5 1.66 5 2.32 5 3 C5.70125 3.20625 6.4025 3.4125 7.125 3.625 C10.95725116 5.45781577 13.10452507 7.90251519 16 11 C15.67 11.66 15.34 12.32 15 13 C14.54109375 12.50628906 14.0821875 12.01257813 13.609375 11.50390625 C12.99578125 10.86324219 12.3821875 10.22257813 11.75 9.5625 C11.14671875 8.92441406 10.5434375 8.28632812 9.921875 7.62890625 C7.85854411 5.88010751 6.57834701 5.59175177 4 5 C1.75 2.4375 1.75 2.4375 0 0 Z " fill="#7D7E80" transform="translate(414,771)"/>
<path d="M0 0 C-0.969375 0.28875 -1.93875 0.5775 -2.9375 0.875 C-6.10664203 1.64214682 -6.10664203 1.64214682 -7 4 C-8.84765625 4.6328125 -8.84765625 4.6328125 -11.0625 5.125 C-11.79597656 5.29257812 -12.52945312 5.46015625 -13.28515625 5.6328125 C-13.85105469 5.75398437 -14.41695313 5.87515625 -15 6 C-10.84715145 1.35858103 -6.43741727 -2.47592972 0 0 Z " fill="#757778" transform="translate(386,770)"/>
<path d="M0 0 C0.66 0.33 1.32 0.66 2 1 C0.37660195 2.70884005 -1.29319053 4.37446717 -3 6 C-3.66 6 -4.32 6 -5 6 C-4.67 8.97 -4.34 11.94 -4 15 C-4.66 14.67 -5.32 14.34 -6 14 C-6.92017937 6.17847534 -6.92017937 6.17847534 -4.6640625 3.2890625 C-3 1.9375 -3 1.9375 0 0 Z " fill="#B7B8B9" transform="translate(356,449)"/>
<path d="M0 0 C-1.38188453 3.21043882 -2.92421903 5.04936365 -5.625 7.25 C-6.57246094 8.03117188 -6.57246094 8.03117188 -7.5390625 8.828125 C-8.02117188 9.21484375 -8.50328125 9.6015625 -9 10 C-9 7 -9 7 -7.5390625 5.17578125 C-6.90742188 4.56089844 -6.27578125 3.94601563 -5.625 3.3125 C-4.68527344 2.37857422 -4.68527344 2.37857422 -3.7265625 1.42578125 C-2 0 -2 0 0 0 Z " fill="#3F4144" transform="translate(20,182)"/>
<path d="M0 0 C6.93 0 13.86 0 21 0 C18 3 18 3 16.09887695 3.2487793 C15.40238037 3.19117432 14.70588379 3.13356934 13.98828125 3.07421875 C13.23095703 3.01943359 12.47363281 2.96464844 11.69335938 2.90820312 C10.90767578 2.83537109 10.12199219 2.76253906 9.3125 2.6875 C8.51521484 2.62626953 7.71792969 2.56503906 6.89648438 2.50195312 C4.92983047 2.34886031 2.96471011 2.17629291 1 2 C0.67 1.34 0.34 0.68 0 0 Z " fill="#DCDDDD" transform="translate(204,903)"/>
<path d="M0 0 C0.66 0.33 1.32 0.66 2 1 C0.90033225 2.29549899 -0.20491801 3.58626071 -1.3125 4.875 C-1.92738281 5.59429687 -2.54226563 6.31359375 -3.17578125 7.0546875 C-5 9 -5 9 -8 11 C-6.63629701 8.00779732 -5.05091917 5.70973471 -2.875 3.25 C-2.33617187 2.63640625 -1.79734375 2.0228125 -1.2421875 1.390625 C-0.62730469 0.70226563 -0.62730469 0.70226563 0 0 Z " fill="#383B3D" transform="translate(481,63)"/>
<path d="M0 0 C0.66 0.33 1.32 0.66 2 1 C0.90033225 2.29549899 -0.20491801 3.58626071 -1.3125 4.875 C-1.92738281 5.59429687 -2.54226563 6.31359375 -3.17578125 7.0546875 C-5 9 -5 9 -8 11 C-6.63629701 8.00779732 -5.05091917 5.70973471 -2.875 3.25 C-2.33617187 2.63640625 -1.79734375 2.0228125 -1.2421875 1.390625 C-0.62730469 0.70226563 -0.62730469 0.70226563 0 0 Z " fill="#383B3D" transform="translate(373,63)"/>
<path d="M0 0 C0 3.58912412 -0.66436554 4.10857029 -3 6.6875 C-3.556875 7.31011719 -4.11375 7.93273437 -4.6875 8.57421875 C-5.120625 9.04472656 -5.55375 9.51523437 -6 10 C-7.32 9.67 -8.64 9.34 -10 9 C-6.7 6.03 -3.4 3.06 0 0 Z " fill="#8F9192" transform="translate(537,834)"/>
<path d="M0 0 C-1.24176695 0.70226141 -2.49385599 1.38629109 -3.75 2.0625 C-4.79414062 2.63677734 -4.79414062 2.63677734 -5.859375 3.22265625 C-8.36140628 4.1312406 -9.5332355 3.88336837 -12 3 C-10.75823305 2.29773859 -9.50614401 1.61370891 -8.25 0.9375 C-7.20585938 0.36322266 -7.20585938 0.36322266 -6.140625 -0.22265625 C-3.63859372 -1.1312406 -2.4667645 -0.88336837 0 0 Z " fill="#B3B4B5" transform="translate(710,898)"/>
<path d="M0 0 C3.80984844 2.77079887 4.06840752 6.62868145 5 11 C1.62668646 8.75112431 1.1641821 7.7612037 0 4 C0 2.68 0 1.36 0 0 Z " fill="#868889" transform="translate(175,874)"/>
<path d="M0 0 C-1.24176695 0.70226141 -2.49385599 1.38629109 -3.75 2.0625 C-4.79414063 2.63677734 -4.79414063 2.63677734 -5.859375 3.22265625 C-8.36140628 4.1312406 -9.5332355 3.88336837 -12 3 C-10.75823305 2.29773859 -9.50614401 1.61370891 -8.25 0.9375 C-7.20585937 0.36322266 -7.20585937 0.36322266 -6.140625 -0.22265625 C-3.63859372 -1.1312406 -2.4667645 -0.88336837 0 0 Z " fill="#858688" transform="translate(36,649)"/>
<path d="M0 0 C0.99 0 1.98 0 3 0 C4.33333333 2.66666667 5.66666667 5.33333333 7 8 C3.64379729 6.61122646 1.92701272 5.08322035 0 2 C0 1.34 0 0.68 0 0 Z " fill="#747678" transform="translate(470,832)"/>
<path d="M0 0 C0.66 0.33 1.32 0.66 2 1 C0.88121617 2.17262904 -0.24523051 3.33795138 -1.375 4.5 C-2.00148438 5.1496875 -2.62796875 5.799375 -3.2734375 6.46875 C-5 8 -5 8 -7 8 C-5.61918777 3.8575633 -3.40174442 2.67796901 0 0 Z " fill="#3F4143" transform="translate(835,182)"/>
</svg>
